<?xml version="1.0" encoding="UTF-8"?>
<svg width="58px" height="58px" viewBox="0 0 58 58" version="1.1" xmlns="http://www.w3.org/2000/svg" xmlns:xlink="http://www.w3.org/1999/xlink">
    <title>deposit-empty</title>
    <g id="Page-1" stroke="none" stroke-width="1" fill="none" fill-rule="evenodd">
        <g id="Deposit-rules---Empty-state" transform="translate(-563.000000, -259.000000)">
            <g id="deposit-empty" transform="translate(564.000000, 260.000000)">
                <g id="Group" stroke="#333333" stroke-width="1.44">
                    <g id="Path">
                        <path d="M16.9828615,5.80301935 C17.0080258,8.19202106 15.5800863,10.3574734 13.3729958,11.2773351 C11.1659054,12.1971967 8.62089611,11.687573 6.93915089,9.98899397 C5.25740566,8.29041494 4.77513175,5.74245316 5.71995081,3.54768513 C6.66476986,1.35291709 8.84779774,-0.0498886888 11.238698,0.0013582643 C14.4070439,0.0692691174 16.9495146,2.63718928 16.9828615,5.80301935 L16.9828615,5.80301935 Z"></path>
                        <g transform="translate(4.547694, 27.307002)">
                            <polyline points="0 0 0 28.6929977 6.62788105 28.6929977 6.62788105 13.3690451"></polyline>
                            <polyline points="13.2557621 0 13.2557621 28.6929977 6.62788105 28.6929977 6.62788105 13.3690451"></polyline>
                        </g>
                        <g transform="translate(0.000000, 11.667547)">
                            <path d="M0.00286152871,24.0266392 L0.00286152871,11.4143325 C-0.0654045191,8.39958405 1.09022265,5.48550916 3.20667476,3.33547115 C5.32312686,1.18543313 8.22030706,-0.0176132217 11.238698,0 L11.238698,0"></path>
                            <path d="M22.3482891,24.0266392 L22.3482891,11.4143325 C22.416051,8.42146136 21.2775891,5.52683694 19.1885969,3.3805793 C17.0996047,1.23432167 14.2351936,0.0163426075 11.238698,0.000194926986 L11.238698,0.000194926986"></path>
                        </g>
                    </g>
                    <path d="M20.7070995,11.2263112 C27.962919,5.11811728 38.3724867,4.49478462 46.3066793,9.69338933 C54.240872,14.891994 57.8164497,24.6786085 55.0998675,33.7609804 C52.3832853,42.8433523 44.0193443,49.0657129 34.5309656,49.0632313 C29.9992553,49.0999299 25.5749294,47.685517 21.9064303,45.0272932" id="Path"></path>
                </g>
                <g id="$" transform="translate(33.300000, 19.160000)" fill="#000000" fill-rule="nonzero">
                    <path d="M4.22,9.28 C3.76666667,9.14666667 3.31,8.97666667 2.85,8.77 C2.39,8.56333333 1.97666667,8.30666667 1.61,8 C1.24333333,7.69333333 0.943333333,7.32 0.71,6.88 C0.476666667,6.44 0.36,5.91333333 0.36,5.3 C0.36,4.72666667 0.47,4.20666667 0.69,3.74 C0.91,3.27333333 1.2,2.87333333 1.56,2.54 C1.92,2.20666667 2.33,1.94333333 2.79,1.75 C3.25,1.55666667 3.72666667,1.44 4.22,1.4 L4.22,0 L5.18,0 L5.18,1.36 C5.66,1.36 6.08666667,1.40666667 6.46,1.5 C6.83333333,1.59333333 7.16666667,1.72 7.46,1.88 C7.75333333,2.04 8.01666667,2.22333333 8.25,2.43 C8.48333333,2.63666667 8.69333333,2.84666667 8.88,3.06 L7.76,4.02 C7.48,3.55333333 7.1,3.21 6.62,2.99 C6.14,2.77 5.66,2.66666667 5.18,2.68 L5.18,8.02 C5.67333333,8.19333333 6.16,8.39 6.64,8.61 C7.12,8.83 7.55333333,9.10333333 7.94,9.43 C8.32666667,9.75666667 8.64,10.15 8.88,10.61 C9.12,11.07 9.24,11.6266667 9.24,12.28 C9.24,12.84 9.13666667,13.35 8.93,13.81 C8.72333333,14.27 8.43666667,14.6666667 8.07,15 C7.70333333,15.3333333 7.27333333,15.6 6.78,15.8 C6.28666667,16 5.75333333,16.12 5.18,16.16 L5.18,17.52 L4.22,17.52 L4.22,16.2 C3.28666667,16.1466667 2.45,15.91 1.71,15.49 C0.97,15.07 0.4,14.5733333 0,14 L1.2,13.14 C1.41333333,13.42 1.65333333,13.6666667 1.92,13.88 C2.18666667,14.0933333 2.45333333,14.2733333 2.72,14.42 C2.98666667,14.5666667 3.25,14.6766667 3.51,14.75 C3.77,14.8233333 4.00666667,14.86 4.22,14.86 L4.22,9.28 Z M5.18,14.84 C5.43333333,14.84 5.71333333,14.8 6.02,14.72 C6.32666667,14.64 6.61,14.5 6.87,14.3 C7.13,14.1 7.35,13.8366667 7.53,13.51 C7.71,13.1833333 7.8,12.7733333 7.8,12.28 C7.81333333,11.6 7.57,11.0366667 7.07,10.59 C6.57,10.1433333 5.94,9.8 5.18,9.56 L5.18,14.84 Z M4.22,2.7 C3.86,2.72666667 3.53333333,2.81 3.24,2.95 C2.94666667,3.09 2.69333333,3.27333333 2.48,3.5 C2.26666667,3.72666667 2.1,3.99 1.98,4.29 C1.86,4.59 1.8,4.91333333 1.8,5.26 C1.8,5.60666667 1.86333333,5.90666667 1.99,6.16 C2.11666667,6.41333333 2.29,6.63666667 2.51,6.83 C2.73,7.02333333 2.98666667,7.19333333 3.28,7.34 C3.57333333,7.48666667 3.88666667,7.62 4.22,7.74 L4.22,2.7 Z" id="Shape"></path>
                </g>
            </g>
        </g>
    </g>
</svg>