<svg width="32" height="32" viewBox="0 0 32 32" fill="none" xmlns="http://www.w3.org/2000/svg">
<path d="M27.1696 5.54199H8.55961C7.57068 5.54305 6.62255 5.93637 5.92327 6.63565C5.22399 7.33493 4.83067 8.28306 4.82961 9.27199V9.27899H4.82761C3.83921 9.28005 2.89159 9.67316 2.19268 10.3721C1.49378 11.071 1.10067 12.0186 1.09961 13.007V22.729C1.10067 23.7175 1.49375 24.6652 2.19262 25.3643C2.8915 26.0633 3.83912 26.4567 4.82761 26.458H23.4376C24.4263 26.4569 25.3741 26.0637 26.0732 25.3646C26.7723 24.6655 27.1655 23.7177 27.1666 22.729V22.721H27.1696C28.1584 22.7199 29.1063 22.3268 29.8056 21.6277C30.5048 20.9286 30.8983 19.9808 30.8996 18.992V9.27199C30.8985 8.28306 30.5052 7.33493 29.8059 6.63565C29.1067 5.93637 28.1585 5.54305 27.1696 5.54199ZM25.3656 22.729C25.3653 23.2403 25.1622 23.7307 24.8007 24.0924C24.4392 24.454 23.949 24.6575 23.4376 24.658H4.82761C4.31626 24.6575 3.82602 24.454 3.46454 24.0924C3.10305 23.7307 2.89987 23.2403 2.89961 22.729V13.007C2.90014 12.4958 3.10344 12.0057 3.46489 11.6443C3.82635 11.2828 4.31643 11.0795 4.82761 11.079H23.4376C23.9488 11.0795 24.4389 11.2828 24.8003 11.6443C25.1618 12.0057 25.3651 12.4958 25.3656 13.007V22.729ZM29.0996 18.992C29.0996 20.056 28.2346 20.922 27.1696 20.922H27.1666V13.007C27.1653 12.0185 26.772 11.0709 26.0729 10.372C25.3738 9.67313 24.4261 9.28005 23.4376 9.27899H6.62961V9.27199C6.62961 8.20799 7.49561 7.34199 8.55961 7.34199H27.1696C28.2336 7.34199 29.0996 8.20799 29.0996 9.27199V18.992Z" fill="#181C25"/>
<path d="M14.1329 13.906C11.9479 13.906 10.1709 15.683 10.1709 17.868C10.1709 20.053 11.9479 21.83 14.1329 21.83C16.3179 21.83 18.0959 20.053 18.0959 17.868C18.0959 15.683 16.3179 13.906 14.1329 13.906ZM14.1329 20.031C12.9409 20.031 11.9699 19.061 11.9699 17.868C11.9699 16.675 12.9399 15.705 14.1329 15.705C15.3259 15.705 16.2959 16.675 16.2959 17.868C16.2959 19.061 15.3259 20.031 14.1329 20.031Z" fill="#0A5CFF"/>
<path d="M6.89961 16.8191C6.62113 16.8191 6.35406 16.9297 6.15715 17.1266C5.96023 17.3235 5.84961 17.5906 5.84961 17.8691C5.84961 18.1476 5.96023 18.4146 6.15715 18.6116C6.35406 18.8085 6.62113 18.9191 6.89961 18.9191C7.17809 18.9191 7.44516 18.8085 7.64207 18.6116C7.83898 18.4146 7.94961 18.1476 7.94961 17.8691C7.94961 17.5906 7.83898 17.3235 7.64207 17.1266C7.44516 16.9297 7.17809 16.8191 6.89961 16.8191ZM21.3666 16.8191C21.0881 16.8191 20.8211 16.9297 20.6241 17.1266C20.4272 17.3235 20.3166 17.5906 20.3166 17.8691C20.3166 18.1476 20.4272 18.4146 20.6241 18.6116C20.8211 18.8085 21.0881 18.9191 21.3666 18.9191C21.6451 18.9191 21.9122 18.8085 22.1091 18.6116C22.306 18.4146 22.4166 18.1476 22.4166 17.8691C22.4166 17.5906 22.306 17.3235 22.1091 17.1266C21.9122 16.9297 21.6451 16.8191 21.3666 16.8191Z" fill="#181C25"/>
</svg>
