<svg width="32" height="32" viewBox="0 0 32 32" fill="none" xmlns="http://www.w3.org/2000/svg">
<path d="M10.9718 20.452H25.3348C25.9212 20.4494 26.4932 20.2703 26.9764 19.938C27.4596 19.6057 27.8315 19.1356 28.0438 18.589L30.7148 11.615C30.8837 11.1758 30.9431 10.7021 30.8879 10.2349C30.8326 9.76763 30.6644 9.32085 30.3978 8.93319C30.1311 8.54553 29.7741 8.22865 29.3575 8.00995C28.9409 7.79125 28.4773 7.6773 28.0068 7.67797H7.79077L6.96277 5.65697C6.74085 5.11129 6.361 4.64434 5.87193 4.31597C5.38285 3.98761 4.80685 3.8128 4.21777 3.81397H1.99277C1.75408 3.81397 1.52516 3.90879 1.35638 4.07757C1.18759 4.24636 1.09277 4.47528 1.09277 4.71397C1.09277 4.95267 1.18759 5.18158 1.35638 5.35037C1.52516 5.51915 1.75408 5.61397 1.99277 5.61397H4.21777C4.69377 5.61397 5.11677 5.89797 5.29777 6.33897L10.3728 18.724C9.77613 18.86 9.24327 19.1944 8.86128 19.6724C8.47929 20.1505 8.27076 20.744 8.26977 21.356C8.27057 22.0726 8.5556 22.7597 9.06234 23.2664C9.56908 23.7731 10.2561 24.0582 10.9728 24.059H11.0238C10.8708 24.416 10.7848 24.809 10.7848 25.222C10.7848 26.856 12.1148 28.186 13.7488 28.186C15.3828 28.186 16.7118 26.856 16.7118 25.222C16.7118 24.809 16.6258 24.416 16.4728 24.059H23.3278C23.1748 24.416 23.0888 24.809 23.0888 25.222C23.0898 26.0079 23.4026 26.7614 23.9584 27.317C24.5143 27.8727 25.2678 28.1852 26.0538 28.186C27.6878 28.186 29.0178 26.856 29.0178 25.222C29.0178 23.588 27.6878 22.258 26.0538 22.258H10.9718C10.7323 22.258 10.5026 22.1628 10.3333 21.9935C10.1639 21.8241 10.0688 21.5945 10.0688 21.355C10.0688 21.1155 10.1639 20.8858 10.3333 20.7165C10.5026 20.5471 10.7323 20.452 10.9718 20.452ZM8.52877 9.47697H28.0068C28.3738 9.47697 28.7048 9.65097 28.9128 9.95397C29.1208 10.257 29.1648 10.628 29.0328 10.972L26.3618 17.945C26.2834 18.1537 26.143 18.3334 25.9593 18.4598C25.7757 18.5862 25.5577 18.6533 25.3348 18.652H12.2878L8.52877 9.47697ZM26.0528 24.059C26.3614 24.059 26.6573 24.1816 26.8755 24.3998C27.0937 24.618 27.2163 24.9139 27.2163 25.2225C27.2163 25.5311 27.0937 25.827 26.8755 26.0452C26.6573 26.2634 26.3614 26.386 26.0528 26.386C25.7442 26.386 25.4483 26.2634 25.2301 26.0452C25.0119 25.827 24.8893 25.5311 24.8893 25.2225C24.8893 24.9139 25.0119 24.618 25.2301 24.3998C25.4483 24.1816 25.7442 24.059 26.0528 24.059ZM13.7478 24.059C14.0565 24.059 14.3526 24.1816 14.5708 24.3999C14.7891 24.6182 14.9118 24.9143 14.9118 25.223C14.9118 25.5317 14.7891 25.8278 14.5708 26.046C14.3526 26.2643 14.0565 26.387 13.7478 26.387C13.4391 26.387 13.143 26.2643 12.9247 26.046C12.7064 25.8278 12.5838 25.5317 12.5838 25.223C12.5838 24.9143 12.7064 24.6182 12.9247 24.3999C13.143 24.1816 13.4391 24.059 13.7478 24.059Z" fill="#181C25"/>
<path d="M16.4322 14.9641H20.7482C20.9869 14.9641 21.2158 14.8692 21.3846 14.7005C21.5534 14.5317 21.6482 14.3028 21.6482 14.0641C21.6482 13.8254 21.5534 13.5964 21.3846 13.4277C21.2158 13.2589 20.9869 13.1641 20.7482 13.1641H16.4322C16.1935 13.1641 15.9646 13.2589 15.7958 13.4277C15.627 13.5964 15.5322 13.8254 15.5322 14.0641C15.5322 14.3028 15.627 14.5317 15.7958 14.7005C15.9646 14.8692 16.1935 14.9641 16.4322 14.9641Z" fill="#0A5CFF"/>
</svg>
