<svg width="32" height="32" viewBox="0 0 32 32" fill="none" xmlns="http://www.w3.org/2000/svg">
<path d="M25.6496 9.4381C25.6485 8.61961 25.323 7.83493 24.7443 7.25607C24.1656 6.67722 23.3811 6.35142 22.5626 6.3501H9.43759C8.61893 6.35089 7.83405 6.67652 7.25527 7.25549C6.67649 7.83446 6.35112 8.61944 6.35059 9.4381V22.5631C6.35164 23.3816 6.67719 24.1663 7.25586 24.7451C7.83452 25.324 8.6191 25.6498 9.43759 25.6511H22.5626C23.3812 25.6503 24.1661 25.3247 24.7449 24.7457C25.3237 24.1667 25.6491 23.3817 25.6496 22.5631V9.4381ZM14.0446 8.1501H17.9546V11.4431H14.0446V8.1501ZM23.8496 22.5631C23.8496 23.2731 23.2716 23.8501 22.5616 23.8501H9.43759C8.72759 23.8501 8.14959 23.2731 8.14959 22.5631V9.4381C8.14959 8.7281 8.72759 8.1511 9.43759 8.1511H12.2456V11.9511C12.2456 12.6641 12.8266 13.2451 13.5396 13.2451H18.4616C19.1746 13.2451 19.7556 12.6641 19.7556 11.9511V8.1511H22.5636C23.2736 8.1511 23.8516 8.7281 23.8516 9.4381V22.5631H23.8496Z" fill="#181C25"/>
<path d="M14.0446 19.7661H11.3336C11.0949 19.7661 10.866 19.8609 10.6972 20.0297C10.5284 20.1985 10.4336 20.4274 10.4336 20.6661C10.4336 20.9048 10.5284 21.1337 10.6972 21.3025C10.866 21.4713 11.0949 21.5661 11.3336 21.5661H14.0446C14.2833 21.5661 14.5122 21.4713 14.681 21.3025C14.8498 21.1337 14.9446 20.9048 14.9446 20.6661C14.9446 20.4274 14.8498 20.1985 14.681 20.0297C14.5122 19.8609 14.2833 19.7661 14.0446 19.7661Z" fill="#181C25"/>
<path d="M29.2496 1.1001H26.4516C26.2129 1.1001 25.984 1.19492 25.8152 1.3637C25.6464 1.53248 25.5516 1.7614 25.5516 2.0001C25.5516 2.23879 25.6464 2.46771 25.8152 2.63649C25.984 2.80528 26.2129 2.9001 26.4516 2.9001H27.8256L25.9426 4.7831C25.7738 4.95191 25.679 5.18086 25.679 5.4196C25.679 5.65833 25.7738 5.88729 25.9426 6.0561C26.1114 6.22491 26.3404 6.31974 26.5791 6.31974C26.8178 6.31974 27.0468 6.22491 27.2156 6.0561L29.0996 4.1731V5.5481C29.0996 5.78679 29.1944 6.01571 29.3632 6.18449C29.532 6.35328 29.7609 6.4481 29.9996 6.4481C30.2383 6.4481 30.4672 6.35328 30.636 6.18449C30.8048 6.01571 30.8996 5.78679 30.8996 5.5481V2.7501C30.8996 1.8401 30.1596 1.1001 29.2496 1.1001ZM5.54761 29.1001H4.17361L6.05661 27.2171C6.14316 27.1342 6.21229 27.0349 6.25996 26.925C6.30762 26.8151 6.33286 26.6968 6.33419 26.577C6.33552 26.4572 6.31292 26.3383 6.26771 26.2273C6.22249 26.1164 6.15558 26.0156 6.07089 25.9308C5.98621 25.8461 5.88545 25.7791 5.77453 25.7338C5.66361 25.6885 5.54477 25.6658 5.42496 25.667C5.30516 25.6683 5.1868 25.6934 5.07684 25.741C4.96688 25.7886 4.86753 25.8576 4.78461 25.9441L2.89961 27.8271V26.4521C2.89961 26.2134 2.80479 25.9845 2.63601 25.8157C2.46722 25.6469 2.2383 25.5521 1.99961 25.5521C1.76091 25.5521 1.532 25.6469 1.36321 25.8157C1.19443 25.9845 1.09961 26.2134 1.09961 26.4521V29.2501C1.09961 30.1601 1.83961 30.9001 2.74961 30.9001H5.54761C5.7863 30.9001 6.01522 30.8053 6.18401 30.6365C6.35279 30.4677 6.44761 30.2388 6.44761 30.0001C6.44761 29.7614 6.35279 29.5325 6.18401 29.3637C6.01522 29.1949 5.7863 29.1001 5.54761 29.1001ZM1.99961 6.4481C2.1178 6.4481 2.23483 6.42482 2.34402 6.37959C2.45322 6.33436 2.55243 6.26807 2.63601 6.18449C2.71958 6.10092 2.78587 6.00171 2.8311 5.89251C2.87633 5.78332 2.89961 5.66629 2.89961 5.5481V4.1731L4.78361 6.0571C4.86696 6.14096 4.9661 6.2075 5.07529 6.25288C5.18448 6.29825 5.30157 6.32156 5.41982 6.32147C5.53806 6.32138 5.65512 6.29788 5.76424 6.25234C5.87336 6.20679 5.97239 6.1401 6.05561 6.0561C6.13921 5.97252 6.20553 5.87329 6.25078 5.76408C6.29603 5.65487 6.31932 5.53781 6.31932 5.4196C6.31932 5.30138 6.29603 5.18433 6.25078 5.07511C6.20553 4.9659 6.13921 4.86667 6.05561 4.7831L4.17361 2.9001H5.54761C5.7863 2.9001 6.01522 2.80528 6.18401 2.63649C6.35279 2.46771 6.44761 2.23879 6.44761 2.0001C6.44761 1.7614 6.35279 1.53248 6.18401 1.3637C6.01522 1.19492 5.7863 1.1001 5.54761 1.1001H2.74961C1.83961 1.1001 1.09961 1.8401 1.09961 2.7501V5.5481C1.09961 5.66629 1.12289 5.78332 1.16812 5.89251C1.21335 6.00171 1.27964 6.10092 1.36321 6.18449C1.44679 6.26807 1.546 6.33436 1.65519 6.37959C1.76439 6.42482 1.88142 6.4481 1.99961 6.4481ZM29.9996 25.5521C29.7609 25.5521 29.532 25.6469 29.3632 25.8157C29.1944 25.9845 29.0996 26.2134 29.0996 26.4521V27.8271L27.2156 25.9431C27.0456 25.7803 26.8186 25.6907 26.5833 25.6933C26.3479 25.6959 26.123 25.7906 25.9566 25.9571C25.7902 26.1236 25.6957 26.3486 25.6933 26.5839C25.6909 26.8193 25.7807 27.0462 25.9436 27.2161L27.8266 29.0991H26.4526C26.2139 29.0991 25.985 29.1939 25.8162 29.3627C25.6474 29.5315 25.5526 29.7604 25.5526 29.9991C25.5526 30.2378 25.6474 30.4667 25.8162 30.6355C25.985 30.8043 26.2139 30.8991 26.4526 30.8991H29.2506C30.1606 30.8991 30.9006 30.1591 30.9006 29.2491V26.4511C30.9001 26.2125 30.8049 25.9838 30.636 25.8153C30.4671 25.6467 30.2382 25.5521 29.9996 25.5521Z" fill="#0A5CFF"/>
</svg>
