<svg width="32" height="32" viewBox="0 0 32 32" fill="none" xmlns="http://www.w3.org/2000/svg">
<path d="M24.3382 7.33911H7.66221C7.42351 7.33911 7.19459 7.43393 7.02581 7.60272C6.85703 7.7715 6.76221 8.00042 6.76221 8.23911C6.76221 8.47781 6.85703 8.70672 7.02581 8.87551C7.19459 9.04429 7.42351 9.13911 7.66221 9.13911H24.3382C24.5769 9.13911 24.8058 9.04429 24.9746 8.87551C25.1434 8.70672 25.2382 8.47781 25.2382 8.23911C25.2382 8.00042 25.1434 7.7715 24.9746 7.60272C24.8058 7.43393 24.5769 7.33911 24.3382 7.33911ZM24.3382 14.4401H7.66221C7.42351 14.4401 7.19459 14.5349 7.02581 14.7037C6.85703 14.8725 6.76221 15.1014 6.76221 15.3401C6.76221 15.5788 6.85703 15.8077 7.02581 15.9765C7.19459 16.1453 7.42351 16.2401 7.66221 16.2401H24.3382C24.5769 16.2401 24.8058 16.1453 24.9746 15.9765C25.1434 15.8077 25.2382 15.5788 25.2382 15.3401C25.2382 15.1014 25.1434 14.8725 24.9746 14.7037C24.8058 14.5349 24.5769 14.4401 24.3382 14.4401Z" fill="#181C25"/>
<path d="M23.7734 20.0921L20.8004 22.4881L19.9154 21.3601C19.8427 21.2668 19.7523 21.1888 19.6494 21.1306C19.5465 21.0724 19.4331 21.0351 19.3157 21.0209C19.1983 21.0067 19.0793 21.0158 18.9655 21.0478C18.8516 21.0797 18.7452 21.1338 18.6524 21.2071C18.5592 21.2798 18.4814 21.3702 18.4232 21.4732C18.3651 21.5761 18.3279 21.6894 18.3136 21.8068C18.2994 21.9241 18.3085 22.0431 18.3404 22.1569C18.3723 22.2708 18.4263 22.3772 18.4994 22.4701L19.9464 24.3171C20.0194 24.4114 20.1105 24.4902 20.2144 24.5488C20.3183 24.6074 20.4329 24.6447 20.5514 24.6584C20.6699 24.6721 20.79 24.6619 20.9045 24.6286C21.0191 24.5952 21.1258 24.5393 21.2184 24.4641L24.9014 21.4961C25.0876 21.3465 25.2067 21.1291 25.2326 20.8916C25.2585 20.6542 25.189 20.4162 25.0394 20.2301C24.8898 20.0439 24.6724 19.9247 24.435 19.8989C24.1975 19.873 23.9596 19.9425 23.7734 20.0921Z" fill="#0A5CFF"/>
<path d="M14.6252 21.542H7.66221C7.42351 21.542 7.19459 21.6368 7.02581 21.8056C6.85703 21.9744 6.76221 22.2033 6.76221 22.442C6.76221 22.6807 6.85703 22.9096 7.02581 23.0784C7.19459 23.2472 7.42351 23.342 7.66221 23.342H14.6252C14.8639 23.342 15.0928 23.2472 15.2616 23.0784C15.4304 22.9096 15.5252 22.6807 15.5252 22.442C15.5252 22.2033 15.4304 21.9744 15.2616 21.8056C15.0928 21.6368 14.8639 21.542 14.6252 21.542Z" fill="#181C25"/>
</svg>
