<svg width="32" height="32" viewBox="0 0 32 32" fill="none" xmlns="http://www.w3.org/2000/svg">
<path d="M12.2729 10.1311C11.7047 10.1316 11.1599 10.3576 10.7581 10.7594C10.3564 11.1611 10.1304 11.7059 10.1299 12.2741V19.7271C10.1299 20.9091 11.0909 21.8701 12.2729 21.8701H19.7259C20.2941 21.8696 20.8389 21.6436 21.2406 21.2418C21.6424 20.8401 21.8684 20.2953 21.8689 19.7271V12.2741C21.8684 11.7059 21.6424 11.1611 21.2406 10.7594C20.8389 10.3576 20.2941 10.1316 19.7259 10.1311H12.2729ZM15.2789 11.9321H16.7199V13.0241H15.2789V11.9321ZM20.0679 12.2731V19.7261C20.0679 19.8168 20.0319 19.9038 19.9677 19.9679C19.9036 20.0321 19.8166 20.0681 19.7259 20.0681H12.2729C12.1822 20.0681 12.0952 20.0321 12.0311 19.9679C11.9669 19.9038 11.9309 19.8168 11.9309 19.7261V12.2731C11.9309 12.0851 12.0839 11.9311 12.2729 11.9311H13.4779V13.7001C13.4779 14.3191 13.9829 14.8241 14.6019 14.8241H17.3969C18.0159 14.8241 18.5209 14.3191 18.5209 13.7001V11.9311H19.7259C19.8165 11.9314 19.9033 11.9675 19.9674 12.0316C20.0315 12.0956 20.0676 12.1825 20.0679 12.2731Z" fill="#0A5CFF"/>
<path d="M27.3151 9.18405C27.2539 9.083 27.1733 8.995 27.078 8.92509C26.9828 8.85517 26.8747 8.8047 26.7599 8.77657C26.6451 8.74843 26.5259 8.74318 26.4091 8.76111C26.2923 8.77903 26.1802 8.81979 26.0791 8.88105C25.9781 8.94231 25.8901 9.02288 25.8202 9.11815C25.7503 9.21342 25.6998 9.32153 25.6716 9.4363C25.6435 9.55107 25.6383 9.67026 25.6562 9.78707C25.6741 9.90387 25.7149 10.016 25.7761 10.1171C26.8492 11.892 27.4153 13.927 27.4131 16.0011C27.4131 22.2941 22.2941 27.4131 16.0011 27.4131C14.8311 27.4131 13.6891 27.2391 12.5951 26.8961L13.8321 26.3011C14.0472 26.1976 14.2124 26.013 14.2915 25.7878C14.3706 25.5627 14.3572 25.3153 14.2541 25.1001C14.15 24.8856 13.9654 24.7209 13.7405 24.6418C13.5156 24.5628 13.2685 24.5758 13.0531 24.6781L9.92813 26.1811C9.81649 26.2346 9.71709 26.3106 9.63617 26.4044C9.55524 26.4981 9.49453 26.6075 9.45783 26.7258C9.42113 26.844 9.40923 26.9686 9.42288 27.0917C9.43652 27.2148 9.47542 27.3337 9.53713 27.4411L11.2651 30.4491C11.3225 30.5544 11.4003 30.6473 11.494 30.7222C11.5878 30.797 11.6956 30.8524 11.811 30.885C11.9265 30.9176 12.0473 30.9268 12.1663 30.9121C12.2854 30.8973 12.4003 30.8589 12.5043 30.7991C12.6083 30.7393 12.6993 30.6593 12.7719 30.5638C12.8446 30.4684 12.8974 30.3593 12.9273 30.2431C12.9572 30.1269 12.9635 30.006 12.946 29.8873C12.9285 29.7686 12.8874 29.6546 12.8251 29.5521L12.3271 28.6851C13.5131 29.0301 14.7421 29.2141 16.0011 29.2141C23.2861 29.2141 29.2141 23.2861 29.2141 16.0011C29.2141 13.5901 28.5581 11.2321 27.3151 9.18405ZM15.9991 4.58705C17.1691 4.58705 18.3111 4.76105 19.4051 5.10405L18.1681 5.69905C17.9621 5.80789 17.8062 5.99234 17.7332 6.21367C17.6603 6.435 17.6759 6.67598 17.7769 6.88602C17.8778 7.09607 18.0562 7.25883 18.2746 7.34013C18.493 7.42143 18.7344 7.41495 18.9481 7.32205L22.0731 5.81905C22.1848 5.76549 22.2842 5.68947 22.3651 5.59574C22.446 5.50201 22.5067 5.39259 22.5434 5.27433C22.5801 5.15606 22.592 5.03149 22.5784 4.90842C22.5647 4.78534 22.5258 4.66641 22.4641 4.55905L20.7361 1.55105C20.6172 1.34405 20.4209 1.19278 20.1904 1.13052C19.9599 1.06826 19.7141 1.1001 19.5071 1.21905C19.3001 1.338 19.1489 1.53431 19.0866 1.76479C19.0243 1.99528 19.0562 2.24105 19.1751 2.44805L19.6731 3.31505C18.4797 2.96539 17.2427 2.78727 15.9991 2.78605C8.71413 2.78605 2.78613 8.71405 2.78613 15.9991C2.78613 18.4101 3.44213 20.7681 4.68413 22.8161C4.80786 23.0203 5.00764 23.167 5.23953 23.2239C5.47141 23.2808 5.71642 23.2433 5.92063 23.1196C6.12485 22.9958 6.27155 22.796 6.32847 22.5642C6.38539 22.3323 6.34786 22.0873 6.22413 21.8831C5.1511 20.1081 4.58494 18.0731 4.58713 15.9991C4.58713 9.70605 9.70613 4.58705 15.9991 4.58705Z" fill="#181C25"/>
</svg>
