<svg width="32" height="32" viewBox="0 0 32 32" fill="none" xmlns="http://www.w3.org/2000/svg">
<path d="M30.661 22.1653C30.583 21.9232 30.4444 21.7052 30.2583 21.5319C30.0723 21.3586 29.8449 21.2359 29.598 21.1753L27.36 20.6172L26.139 18.6623C25.586 17.7793 24.149 17.7793 23.596 18.6623L22.375 20.6172L20.137 21.1753C19.8903 21.2361 19.6632 21.359 19.4774 21.5323C19.2915 21.7055 19.153 21.9234 19.075 22.1653C18.9953 22.4072 18.9788 22.6655 19.0271 22.9157C19.0754 23.1658 19.1869 23.3994 19.351 23.5943L20.834 25.3593L20.673 27.6592C20.6539 27.9129 20.7003 28.1672 20.8076 28.3978C20.9149 28.6284 21.0797 28.8275 21.286 28.9763C21.4914 29.1261 21.7317 29.221 21.984 29.252C22.2364 29.283 22.4925 29.249 22.728 29.1533L24.866 28.2902L27.004 29.1543C27.2397 29.2493 27.4956 29.2828 27.7478 29.2518C28 29.2207 28.2402 29.1261 28.4458 28.9767C28.6514 28.8273 28.8156 28.6281 28.923 28.3978C29.0305 28.1676 29.0776 27.9138 29.06 27.6603L28.899 25.3593L30.382 23.5923C30.719 23.1933 30.821 22.6603 30.661 22.1653ZM27.289 24.4803C27.1392 24.6593 27.0647 24.8894 27.081 25.1223L27.233 27.3052L25.205 26.4863C24.989 26.398 24.747 26.398 24.531 26.4863L22.504 27.3042L22.656 25.1223C22.6721 24.8894 22.5976 24.6594 22.448 24.4803L21.041 22.8052L23.164 22.2763C23.3904 22.2199 23.5861 22.078 23.71 21.8803L24.868 20.0263L26.026 21.8803C26.15 22.0783 26.345 22.2203 26.572 22.2763L28.695 22.8052L27.289 24.4803Z" fill="#0A5CFF"/>
<path d="M22.9996 3.79609C24.1576 3.79609 25.0996 4.73809 25.0996 5.89609V15.4761C25.0996 15.7148 25.1944 15.9437 25.3632 16.1125C25.532 16.2813 25.7609 16.3761 25.9996 16.3761C26.2383 16.3761 26.4672 16.2813 26.636 16.1125C26.8048 15.9437 26.8996 15.7148 26.8996 15.4761V5.89609C26.8996 3.74609 25.1496 1.99609 22.9996 1.99609H4.99961C2.84961 1.99609 1.09961 3.74609 1.09961 5.89609V23.8961C1.09961 26.0461 2.84961 27.7961 4.99961 27.7961H16.8096C17.0483 27.7961 17.2772 27.7013 17.446 27.5325C17.6148 27.3637 17.7096 27.1348 17.7096 26.8961C17.7096 26.6574 17.6148 26.4285 17.446 26.2597C17.2772 26.0909 17.0483 25.9961 16.8096 25.9961H4.99961C3.84161 25.9961 2.89961 25.0541 2.89961 23.8961V5.89609C2.89961 4.73809 3.84061 3.79609 4.99961 3.79609H9.18461V9.34209C9.18461 10.1361 9.83061 10.7821 10.6246 10.7821H17.3746C18.1686 10.7821 18.8146 10.1361 18.8146 9.34209V3.79609H22.9996ZM17.0146 8.98209H10.9856V3.79609H17.0146V8.98209Z" fill="#181C25"/>
<path d="M6.28574 21.7102C6.04705 21.7102 5.81813 21.805 5.64935 21.9738C5.48056 22.1426 5.38574 22.3715 5.38574 22.6102C5.38574 22.8489 5.48056 23.0778 5.64935 23.2466C5.81813 23.4154 6.04705 23.5102 6.28574 23.5102H10.0047C10.2434 23.5102 10.4724 23.4154 10.6411 23.2466C10.8099 23.0778 10.9047 22.8489 10.9047 22.6102C10.9047 22.3715 10.8099 22.1426 10.6411 21.9738C10.4724 21.805 10.2434 21.7102 10.0047 21.7102H6.28574Z" fill="#181C25"/>
</svg>
