<svg width="32" height="32" viewBox="0 0 32 32" fill="none" xmlns="http://www.w3.org/2000/svg">
<path d="M26 13.1998C25.9989 12.3517 25.6615 11.5386 25.0618 10.9388C24.4622 10.339 23.6491 10.0014 22.8009 10H9.19913C8.35074 10.0008 7.53735 10.3382 6.93755 10.9382C6.33774 11.5381 6.00055 12.3515 6 13.1998V26.8002C6.0011 27.6483 6.33847 28.4614 6.93815 29.0612C7.53784 29.661 8.35091 29.9986 9.19913 30H22.8009C23.6493 29.9992 24.4626 29.6618 25.0625 29.0618C25.6623 28.4619 25.9995 27.6485 26 26.8002V13.1998ZM13.9735 11.8652H18.0255V15.2774H13.9735V11.8652ZM24.1346 26.8002C24.1346 27.5359 23.5356 28.1338 22.7998 28.1338H9.19913C8.46334 28.1338 7.86435 27.5359 7.86435 26.8002V13.1998C7.86435 12.4641 8.46334 11.8662 9.19913 11.8662H12.1091V15.8038C12.1091 16.5427 12.7112 17.1447 13.4501 17.1447H18.5509C19.2898 17.1447 19.8919 16.5427 19.8919 15.8038V11.8662H22.8019C23.5377 11.8662 24.1367 12.4641 24.1367 13.1998V26.8002H24.1346Z" fill="#181C25"/>
<path d="M14.0024 24H10.9976C10.733 24 10.4793 24.1054 10.2922 24.2929C10.1051 24.4804 10 24.7348 10 25C10 25.2652 10.1051 25.5196 10.2922 25.7071C10.4793 25.8946 10.733 26 10.9976 26H14.0024C14.267 26 14.5207 25.8946 14.7078 25.7071C14.8949 25.5196 15 25.2652 15 25C15 24.7348 14.8949 24.4804 14.7078 24.2929C14.5207 24.1054 14.267 24 14.0024 24Z" fill="#181C25"/>
<path d="M16.005 5.988C16.2437 5.988 16.4726 5.89318 16.6414 5.7244C16.8101 5.55561 16.905 5.32669 16.905 5.088V2.9C16.905 2.66131 16.8101 2.43239 16.6414 2.2636C16.4726 2.09482 16.2437 2 16.005 2C15.7663 2 15.5373 2.09482 15.3686 2.2636C15.1998 2.43239 15.105 2.66131 15.105 2.9V5.088C15.105 5.32669 15.1998 5.55561 15.3686 5.7244C15.5373 5.89318 15.7663 5.988 16.005 5.988ZM10.127 7.585C10.2058 7.67375 10.3014 7.74603 10.4082 7.79769C10.5151 7.84934 10.6311 7.87935 10.7496 7.88599C10.8681 7.89263 10.9867 7.87576 11.0987 7.83636C11.2106 7.79696 11.3137 7.7358 11.4019 7.65641C11.4902 7.57702 11.5618 7.48097 11.6128 7.37377C11.6637 7.26658 11.693 7.15036 11.6988 7.03182C11.7047 6.91328 11.687 6.79475 11.6469 6.68305C11.6068 6.57136 11.5449 6.4687 11.465 6.381L10.073 4.834C9.99415 4.74525 9.89856 4.67297 9.79171 4.62132C9.68485 4.56966 9.56883 4.53965 9.45033 4.53301C9.33183 4.52637 9.21318 4.54324 9.10123 4.58264C8.98927 4.62204 8.88621 4.6832 8.79799 4.76259C8.70976 4.84198 8.63811 4.93804 8.58716 5.04523C8.5362 5.15242 8.50696 5.26864 8.5011 5.38718C8.49524 5.50572 8.51289 5.62425 8.55302 5.73595C8.59316 5.84764 8.65499 5.9503 8.73496 6.038L10.127 7.585ZM21.214 7.883C21.3402 7.88318 21.465 7.85674 21.5803 7.80539C21.6955 7.75404 21.7987 7.67894 21.883 7.585L23.275 6.038C23.354 5.95015 23.415 5.84758 23.4544 5.73616C23.4938 5.62474 23.5109 5.50665 23.5047 5.38862C23.4985 5.2706 23.4691 5.15496 23.4181 5.0483C23.3672 4.94164 23.2958 4.84606 23.208 4.767C23.1201 4.68794 23.0175 4.62697 22.9061 4.58755C22.7947 4.54813 22.6766 4.53105 22.5586 4.53727C22.4406 4.54349 22.3249 4.5729 22.2183 4.62381C22.1116 4.67472 22.016 4.74615 21.937 4.834L20.545 6.381C20.4281 6.51017 20.3514 6.67048 20.3239 6.84247C20.2965 7.01445 20.3197 7.19069 20.3905 7.34978C20.4614 7.50887 20.5769 7.64395 20.7231 7.73861C20.8693 7.83327 21.0398 7.88343 21.214 7.883Z" fill="#0A5CFF"/>
</svg>
