<svg width="32" height="32" viewBox="0 0 32 32" fill="none" xmlns="http://www.w3.org/2000/svg">
<path d="M10.2279 18.731C10.3869 18.731 10.5469 18.708 10.7039 18.66L15.9689 17.05C16.2236 16.9729 16.4554 16.8342 16.6437 16.6461C16.8321 16.4581 16.9712 16.2266 17.0489 15.972L18.6589 10.704C18.7454 10.4226 18.7534 10.123 18.6822 9.83734C18.6111 9.5517 18.4633 9.2909 18.2549 9.08302C18.0472 8.87395 17.7863 8.7257 17.5003 8.65431C17.2144 8.58292 16.9144 8.59112 16.6329 8.67802L11.3679 10.288C11.1131 10.3652 10.8814 10.5039 10.693 10.6919C10.5046 10.8799 10.3655 11.1114 10.2879 11.366L8.67786 16.634C8.59137 16.9154 8.58328 17.215 8.65447 17.5007C8.72566 17.7863 8.87343 18.0471 9.08186 18.255C9.38986 18.565 9.80286 18.731 10.2279 18.731ZM11.9809 11.983L16.8389 10.497L15.3539 15.355L10.4959 16.841L11.9809 11.983Z" fill="#0A5CFF"/>
<path d="M28.7183 7.94495C27.2456 6.2416 25.6486 4.6499 23.9403 3.18295C20.0183 -0.570045 12.2923 0.944955 6.61727 6.61895C0.889266 12.346 -0.607734 20.169 3.28027 24.057L7.94327 28.72C9.40527 30.183 11.4243 30.884 13.6803 30.884C17.4203 30.884 21.8083 28.957 25.3813 25.384C31.1093 19.656 32.6053 11.833 28.7183 7.94495ZM7.88927 7.89095C11.1273 4.65395 15.0523 2.88095 18.2863 2.88095C20.0723 2.88095 21.6483 3.42195 22.7823 4.55495C23.4743 5.24695 23.9563 6.11795 24.2153 7.14595C25.1363 10.73 23.2203 15.673 19.4453 19.448C15.6783 23.214 10.7333 25.128 7.13827 24.217C6.11427 23.959 5.24427 23.477 4.55227 22.785C1.36727 19.598 2.86327 12.917 7.88927 7.89095ZM24.1093 24.111C19.0843 29.136 12.4013 30.632 9.21527 27.447L7.94827 26.18C8.31227 26.22 8.68227 26.245 9.05827 26.245C12.8583 26.245 17.2073 24.23 20.7173 20.72C24.5843 16.853 26.6273 11.983 26.1763 7.94995L27.4443 9.21796C30.6313 12.404 29.1343 19.084 24.1093 24.111Z" fill="#181C25"/>
</svg>
