<svg width="32" height="32" viewBox="0 0 32 32" fill="none" xmlns="http://www.w3.org/2000/svg">
<path d="M25.9996 3.87695H5.99961C4.70045 3.87828 3.45489 4.39495 2.53625 5.31359C1.61761 6.23223 1.10093 7.4778 1.09961 8.77695V23.222C1.09961 25.924 3.29761 28.122 5.99961 28.122H25.9996C28.7016 28.122 30.8996 25.924 30.8996 23.222V8.77695C30.8996 6.07495 28.7016 3.87695 25.9996 3.87695ZM29.0996 23.223C29.0996 24.932 27.7086 26.323 25.9996 26.323H5.99961C5.17776 26.3219 4.38988 25.9949 3.80875 25.4138C3.22761 24.8327 2.90067 24.0448 2.89961 23.223V8.77695C2.89961 7.06795 4.29061 5.67695 5.99961 5.67695H25.9996C27.7086 5.67695 29.0996 7.06795 29.0996 8.77695V23.223Z" fill="#181C25"/>
<path d="M14.1453 16.2421C14.9541 15.4316 15.408 14.3331 15.4073 13.1881C15.4062 12.0381 14.949 10.9355 14.1359 10.1222C13.3228 9.30892 12.2203 8.85142 11.0703 8.8501C9.92047 8.85169 8.81821 9.3093 8.00534 10.1225C7.19247 10.9358 6.73536 12.0383 6.7343 13.1881C6.73362 14.3331 7.18753 15.4316 7.9963 16.2421C6.44131 17.0221 5.3623 18.6151 5.3623 20.4701V21.0201C5.3623 21.8611 5.9593 22.5861 6.7823 22.7441C9.61569 23.2853 12.5259 23.2853 15.3593 22.7441C15.7593 22.6663 16.1199 22.4517 16.379 22.1371C16.6381 21.8226 16.7796 21.4276 16.7793 21.0201V20.4701C16.7803 18.6151 15.7003 17.0221 14.1453 16.2421ZM11.0713 10.6501C11.7439 10.6509 12.3888 10.9184 12.8644 11.394C13.34 11.8697 13.6075 12.5145 13.6083 13.1871C13.6072 13.8595 13.3396 14.5041 12.864 14.9795C12.3884 15.4549 11.7437 15.7223 11.0713 15.7231C10.3989 15.7223 9.75418 15.4549 9.2786 14.9795C8.80303 14.5041 8.53536 13.8595 8.5343 13.1871C8.5351 12.5145 8.80264 11.8697 9.27825 11.394C9.75386 10.9184 10.3987 10.6509 11.0713 10.6501ZM14.9803 20.9831C12.3963 21.4711 9.6653 21.4241 7.1623 21.0191V20.4691C7.1631 19.6881 7.47377 18.9393 8.02611 18.3872C8.57844 17.835 9.32731 17.5246 10.1083 17.5241H12.0343C12.8153 17.5246 13.5642 17.835 14.1165 18.3872C14.6688 18.9393 14.9795 19.6881 14.9803 20.4691V20.9831Z" fill="#181C25"/>
<path d="M25.7366 13.0171H19.6666C19.4279 13.0171 19.199 13.1119 19.0302 13.2807C18.8614 13.4495 18.7666 13.6784 18.7666 13.9171C18.7666 14.1558 18.8614 14.3847 19.0302 14.5535C19.199 14.7223 19.4279 14.8171 19.6666 14.8171H25.7366C25.9753 14.8171 26.2042 14.7223 26.373 14.5535C26.5418 14.3847 26.6366 14.1558 26.6366 13.9171C26.6366 13.6784 26.5418 13.4495 26.373 13.2807C26.2042 13.1119 25.9753 13.0171 25.7366 13.0171ZM22.6496 17.1831H19.6656C19.4269 17.1831 19.198 17.2779 19.0292 17.4467C18.8604 17.6155 18.7656 17.8444 18.7656 18.0831C18.7656 18.3218 18.8604 18.5507 19.0292 18.7195C19.198 18.8883 19.4269 18.9831 19.6656 18.9831H22.6496C22.8883 18.9831 23.1172 18.8883 23.286 18.7195C23.4548 18.5507 23.5496 18.3218 23.5496 18.0831C23.5496 17.8444 23.4548 17.6155 23.286 17.4467C23.1172 17.2779 22.8883 17.1831 22.6496 17.1831Z" fill="#0A5CFF"/>
</svg>
