<svg width="32" height="32" viewBox="0 0 32 32" fill="none" xmlns="http://www.w3.org/2000/svg">
<path d="M29.1433 19.767C28.5878 19.2084 27.927 18.7655 27.1992 18.4639C26.4715 18.1623 25.6911 18.008 24.9033 18.01C24.1154 18.0079 23.3349 18.162 22.6069 18.4634C21.879 18.7648 21.218 19.2075 20.6623 19.766C19.5293 20.899 18.9053 22.405 18.9053 24.007C18.9053 25.609 19.5293 27.115 20.6623 28.248C21.7953 29.38 23.3013 30.004 24.9033 30.004C26.5053 30.004 28.0103 29.38 29.1433 28.248C30.2763 27.115 30.9003 25.609 30.9003 24.007C30.9003 22.405 30.2753 20.899 29.1433 19.767ZM27.8693 26.975C27.4805 27.3658 27.0181 27.6756 26.5088 27.8865C25.9995 28.0975 25.4535 28.2054 24.9023 28.204C24.3509 28.2055 23.8047 28.0976 23.2952 27.8866C22.7858 27.6757 22.3232 27.3659 21.9343 26.975C21.1413 26.182 20.7043 25.128 20.7043 24.007C20.7043 22.886 21.1423 21.832 21.9343 21.039C22.3232 20.6482 22.7858 20.3384 23.2952 20.1274C23.8047 19.9165 24.3509 19.8086 24.9023 19.81C26.0223 19.81 27.0773 20.247 27.8693 21.04C28.6623 21.832 29.0993 22.886 29.0993 24.007C29.0993 25.128 28.6623 26.182 27.8693 26.975Z" fill="#0A5CFF"/>
<path d="M26.6468 23.1071H25.8018V22.2621C25.8018 22.0234 25.707 21.7944 25.5382 21.6257C25.3694 21.4569 25.1405 21.3621 24.9018 21.3621C24.6631 21.3621 24.4342 21.4569 24.2654 21.6257C24.0966 21.7944 24.0018 22.0234 24.0018 22.2621V23.1071H23.1578C22.9191 23.1071 22.6902 23.2019 22.5214 23.3707C22.3526 23.5394 22.2578 23.7684 22.2578 24.0071C22.2578 24.2458 22.3526 24.4747 22.5214 24.6435C22.6902 24.8122 22.9191 24.9071 23.1578 24.9071H24.0018V25.7521C24.0018 25.9908 24.0966 26.2197 24.2654 26.3885C24.4342 26.5572 24.6631 26.6521 24.9018 26.6521C25.1405 26.6521 25.3694 26.5572 25.5382 26.3885C25.707 26.2197 25.8018 25.9908 25.8018 25.7521V24.9071H26.6468C26.8855 24.9071 27.1144 24.8122 27.2832 24.6435C27.452 24.4747 27.5468 24.2458 27.5468 24.0071C27.5468 23.7684 27.452 23.5394 27.2832 23.3707C27.1144 23.2019 26.8855 23.1071 26.6468 23.1071Z" fill="#0A5CFF"/>
<path d="M22.9996 3.79609C24.1576 3.79609 25.0996 4.73809 25.0996 5.89609V15.4761C25.0996 15.7148 25.1944 15.9437 25.3632 16.1125C25.532 16.2813 25.7609 16.3761 25.9996 16.3761C26.2383 16.3761 26.4672 16.2813 26.636 16.1125C26.8048 15.9437 26.8996 15.7148 26.8996 15.4761V5.89609C26.8996 3.74609 25.1496 1.99609 22.9996 1.99609H4.99961C2.84961 1.99609 1.09961 3.74609 1.09961 5.89609V23.8961C1.09961 26.0461 2.84961 27.7961 4.99961 27.7961H16.8096C17.0483 27.7961 17.2772 27.7013 17.446 27.5325C17.6148 27.3637 17.7096 27.1348 17.7096 26.8961C17.7096 26.6574 17.6148 26.4285 17.446 26.2597C17.2772 26.0909 17.0483 25.9961 16.8096 25.9961H4.99961C3.84161 25.9961 2.89961 25.0541 2.89961 23.8961V5.89609C2.89961 4.73809 3.84061 3.79609 4.99961 3.79609H9.18461V9.34209C9.18461 10.1361 9.83061 10.7821 10.6246 10.7821H17.3746C18.1686 10.7821 18.8146 10.1361 18.8146 9.34209V3.79609H22.9996ZM17.0146 8.98209H10.9856V3.79609H17.0146V8.98209Z" fill="#181C25"/>
<path d="M6.28574 21.7102C6.04705 21.7102 5.81813 21.805 5.64935 21.9738C5.48056 22.1426 5.38574 22.3715 5.38574 22.6102C5.38574 22.8489 5.48056 23.0778 5.64935 23.2466C5.81813 23.4154 6.04705 23.5102 6.28574 23.5102H10.0047C10.2434 23.5102 10.4724 23.4154 10.6411 23.2466C10.8099 23.0778 10.9047 22.8489 10.9047 22.6102C10.9047 22.3715 10.8099 22.1426 10.6411 21.9738C10.4724 21.805 10.2434 21.7102 10.0047 21.7102H6.28574Z" fill="#181C25"/>
</svg>
