<svg width="52" height="52" viewBox="0 0 52 52" fill="none" xmlns="http://www.w3.org/2000/svg">
    <path fill-rule="evenodd" clip-rule="evenodd"
          d="M6.5 8C7.32843 8 8 7.32843 8 6.5C8 5.67157 7.32843 5 6.5 5C5.67157 5 5 5.67157 5 6.5C5 7.32843 5.67157 8 6.5 8ZM19.5 8C20.3284 8 21 7.32843 21 6.5C21 5.67157 20.3284 5 19.5 5C18.6716 5 18 5.67157 18 6.5C18 7.32843 18.6716 8 19.5 8ZM34 6.5C34 7.32843 33.3284 8 32.5 8C31.6716 8 31 7.32843 31 6.5C31 5.67157 31.6716 5 32.5 5C33.3284 5 34 5.67157 34 6.5ZM45.5 8C46.3284 8 47 7.32843 47 6.5C47 5.67157 46.3284 5 45.5 5C44.6716 5 44 5.67157 44 6.5C44 7.32843 44.6716 8 45.5 8ZM8 19.5C8 20.3284 7.32843 21 6.5 21C5.67157 21 5 20.3284 5 19.5C5 18.6716 5.67157 18 6.5 18C7.32843 18 8 18.6716 8 19.5ZM19.5 21C20.3284 21 21 20.3284 21 19.5C21 18.6716 20.3284 18 19.5 18C18.6716 18 18 18.6716 18 19.5C18 20.3284 18.6716 21 19.5 21ZM34 19.5C34 20.3284 33.3284 21 32.5 21C31.6716 21 31 20.3284 31 19.5C31 18.6716 31.6716 18 32.5 18C33.3284 18 34 18.6716 34 19.5ZM45.5 21C46.3284 21 47 20.3284 47 19.5C47 18.6716 46.3284 18 45.5 18C44.6716 18 44 18.6716 44 19.5C44 20.3284 44.6716 21 45.5 21ZM8 32.5C8 33.3284 7.32843 34 6.5 34C5.67157 34 5 33.3284 5 32.5C5 31.6716 5.67157 31 6.5 31C7.32843 31 8 31.6716 8 32.5ZM19.5 34C20.3284 34 21 33.3284 21 32.5C21 31.6716 20.3284 31 19.5 31C18.6716 31 18 31.6716 18 32.5C18 33.3284 18.6716 34 19.5 34ZM34 32.5C34 33.3284 33.3284 34 32.5 34C31.6716 34 31 33.3284 31 32.5C31 31.6716 31.6716 31 32.5 31C33.3284 31 34 31.6716 34 32.5ZM45.5 34C46.3284 34 47 33.3284 47 32.5C47 31.6716 46.3284 31 45.5 31C44.6716 31 44 31.6716 44 32.5C44 33.3284 44.6716 34 45.5 34ZM8 45.5C8 46.3284 7.32843 47 6.5 47C5.67157 47 5 46.3284 5 45.5C5 44.6716 5.67157 44 6.5 44C7.32843 44 8 44.6716 8 45.5ZM19.5 47C20.3284 47 21 46.3284 21 45.5C21 44.6716 20.3284 44 19.5 44C18.6716 44 18 44.6716 18 45.5C18 46.3284 18.6716 47 19.5 47ZM34 45.5C34 46.3284 33.3284 47 32.5 47C31.6716 47 31 46.3284 31 45.5C31 44.6716 31.6716 44 32.5 44C33.3284 44 34 44.6716 34 45.5ZM45.5 47C46.3284 47 47 46.3284 47 45.5C47 44.6716 46.3284 44 45.5 44C44.6716 44 44 44.6716 44 45.5C44 46.3284 44.6716 47 45.5 47Z"
          fill="#eef2f6"/>
</svg>
