<svg width="32" height="32" viewBox="0 0 32 32" fill="none" xmlns="http://www.w3.org/2000/svg">
<path d="M24.9 3.79609C26.058 3.79609 27 4.73809 27 5.89609V15.4761C27 15.7148 27.0948 15.9437 27.2636 16.1125C27.4324 16.2813 27.6613 16.3761 27.9 16.3761C28.1387 16.3761 28.3676 16.2813 28.5364 16.1125C28.7052 15.9437 28.8 15.7148 28.8 15.4761V5.89609C28.8 3.74609 27.05 1.99609 24.9 1.99609H6.9C4.75 1.99609 3 3.74609 3 5.89609V23.8961C3 26.0461 4.75 27.7961 6.9 27.7961H18.71C18.9487 27.7961 19.1776 27.7013 19.3464 27.5325C19.5152 27.3637 19.61 27.1348 19.61 26.8961C19.61 26.6574 19.5152 26.4285 19.3464 26.2597C19.1776 26.0909 18.9487 25.9961 18.71 25.9961H6.9C5.742 25.9961 4.8 25.0541 4.8 23.8961V5.89609C4.8 4.73809 5.741 3.79609 6.9 3.79609H11.085V9.34209C11.085 10.1361 11.731 10.7821 12.525 10.7821H19.275C20.069 10.7821 20.715 10.1361 20.715 9.34209V3.79609H24.9ZM18.915 8.98209H12.886V3.79609H18.915V8.98209Z" fill="#181C25"/>
<path d="M22.0574 21.314C22.6964 21.314 23.2144 20.796 23.2144 20.157C23.2144 19.518 22.6964 19 22.0574 19C21.4184 19 20.9004 19.518 20.9004 20.157C20.9004 20.796 21.4184 21.314 22.0574 21.314Z" fill="#0A5CFF"/>
<path d="M26.1947 24.2949C25.9777 24.5117 25.8558 24.8059 25.8557 25.1126C25.8556 25.4193 25.9774 25.7135 26.1942 25.9304C26.411 26.1474 26.7051 26.2693 27.0118 26.2694C27.3185 26.2695 27.6127 26.1477 27.8297 25.9309C28.0466 25.7141 28.1685 25.42 28.1686 25.1133C28.1687 24.8066 28.047 24.5124 27.8302 24.2954C27.6134 24.0785 27.3192 23.9565 27.0125 23.9564C26.7058 23.9564 26.4116 24.0781 26.1947 24.2949ZM27.8637 19.3069C27.7801 19.2233 27.6809 19.157 27.5716 19.1117C27.4624 19.0665 27.3454 19.0432 27.2272 19.0432C27.109 19.0432 26.9919 19.0665 26.8827 19.1117C26.7735 19.157 26.6742 19.2233 26.5907 19.3069L21.2067 24.6909C21.047 24.8617 20.96 25.0878 20.964 25.3216C20.968 25.5553 21.0627 25.7783 21.228 25.9436C21.3934 26.1088 21.6165 26.2033 21.8502 26.2071C22.084 26.2109 22.31 26.1237 22.4807 25.9639L27.8647 20.5789C28.0331 20.41 28.1276 20.1812 28.1274 19.9427C28.1272 19.7042 28.0323 19.4755 27.8637 19.3069Z" fill="#0A5CFF"/>
<path d="M8.18613 21.7102C7.94744 21.7102 7.71852 21.805 7.54974 21.9738C7.38095 22.1426 7.28613 22.3715 7.28613 22.6102C7.28613 22.8489 7.38095 23.0778 7.54974 23.2466C7.71852 23.4154 7.94744 23.5102 8.18613 23.5102H11.9051C12.1438 23.5102 12.3727 23.4154 12.5415 23.2466C12.7103 23.0778 12.8051 22.8489 12.8051 22.6102C12.8051 22.3715 12.7103 22.1426 12.5415 21.9738C12.3727 21.805 12.1438 21.7102 11.9051 21.7102H8.18613Z" fill="#181C25"/>
</svg>
