<svg width="32" height="32" viewBox="0 0 32 32" fill="none" xmlns="http://www.w3.org/2000/svg">
<path d="M19.354 17.0611H19.01V16.7981C19.01 15.1381 17.659 13.7871 15.999 13.7871C14.339 13.7871 12.989 15.1381 12.989 16.7981V17.0611H12.644C11.6 17.0611 10.751 17.9111 10.751 18.9551V24.2251C10.7518 24.885 11.0143 25.5176 11.4809 25.9842C11.9475 26.4508 12.5801 26.7133 13.24 26.7141H18.757C19.4169 26.7133 20.0495 26.4508 20.5161 25.9842C20.9827 25.5176 21.2452 24.885 21.246 24.2251V18.9551C21.2461 18.7065 21.1973 18.4603 21.1023 18.2306C21.0073 18.0009 20.8679 17.7921 20.6922 17.6163C20.5165 17.4404 20.3079 17.3008 20.0783 17.2056C19.8487 17.1103 19.6026 17.0612 19.354 17.0611ZM14.79 16.7981C14.79 16.1311 15.333 15.5881 16 15.5881C16.667 15.5881 17.21 16.1311 17.21 16.7981V17.0611H14.79V16.7981ZM19.447 24.2241C19.447 24.6041 19.138 24.9121 18.759 24.9121H13.242C13.0595 24.9118 12.8846 24.8393 12.7554 24.7104C12.6263 24.5814 12.5535 24.4066 12.553 24.2241V18.9541C12.553 18.9021 12.595 18.8611 12.646 18.8611H19.355C19.407 18.8611 19.448 18.9021 19.448 18.9541L19.447 24.2241Z" fill="#0A5CFF"/>
<path d="M25.9996 1.1001H5.99961C4.70045 1.10142 3.45489 1.61809 2.53625 2.53674C1.61761 3.45538 1.10093 4.70094 1.09961 6.0001V26.0001C1.09961 28.7021 3.29761 30.9001 5.99961 30.9001H25.9996C28.7016 30.9001 30.8996 28.7021 30.8996 26.0001V6.0001C30.8996 3.2981 28.7016 1.1001 25.9996 1.1001ZM5.99961 2.9001H25.9996C27.7086 2.9001 29.0996 4.2911 29.0996 6.0001V9.6001H2.89961V6.0001C2.89961 4.2911 4.29061 2.9001 5.99961 2.9001ZM25.9996 29.1001H5.99961C5.17776 29.099 4.38988 28.7721 3.80875 28.191C3.22761 27.6098 2.90067 26.8219 2.89961 26.0001V11.4001H29.0996V26.0001C29.0996 27.7091 27.7086 29.1001 25.9996 29.1001Z" fill="#181C25"/>
<path d="M5.44879 7.12707C5.68152 7.12707 5.90471 7.03462 6.06928 6.87006C6.23384 6.70549 6.32629 6.4823 6.32629 6.24957C6.32629 6.01684 6.23384 5.79365 6.06928 5.62908C5.90471 5.46452 5.68152 5.37207 5.44879 5.37207C5.21606 5.37207 4.99287 5.46452 4.8283 5.62908C4.66374 5.79365 4.57129 6.01684 4.57129 6.24957C4.57129 6.4823 4.66374 6.70549 4.8283 6.87006C4.99287 7.03462 5.21606 7.12707 5.44879 7.12707ZM8.42079 7.12707C8.65352 7.12707 8.87671 7.03462 9.04128 6.87006C9.20584 6.70549 9.29829 6.4823 9.29829 6.24957C9.29829 6.01684 9.20584 5.79365 9.04128 5.62908C8.87671 5.46452 8.65352 5.37207 8.42079 5.37207C8.18806 5.37207 7.96487 5.46452 7.8003 5.62908C7.63574 5.79365 7.54329 6.01684 7.54329 6.24957C7.54329 6.4823 7.63574 6.70549 7.8003 6.87006C7.96487 7.03462 8.18806 7.12707 8.42079 7.12707ZM11.3938 7.12707C11.6265 7.12707 11.8497 7.03462 12.0143 6.87006C12.1788 6.70549 12.2713 6.4823 12.2713 6.24957C12.2713 6.01684 12.1788 5.79365 12.0143 5.62908C11.8497 5.46452 11.6265 5.37207 11.3938 5.37207C11.1611 5.37207 10.9379 5.46452 10.7733 5.62908C10.6087 5.79365 10.5163 6.01684 10.5163 6.24957C10.5163 6.4823 10.6087 6.70549 10.7733 6.87006C10.9379 7.03462 11.1611 7.12707 11.3938 7.12707Z" fill="#181C25"/>
</svg>
