<svg width="32" height="32" viewBox="0 0 32 32" fill="none" xmlns="http://www.w3.org/2000/svg">
<path d="M24.5032 12.2091C23.7232 11.2491 22.8362 10.4491 21.8752 9.8071H21.8852C22.7799 9.80578 23.6376 9.44977 24.2703 8.81712C24.9029 8.18447 25.2589 7.3268 25.2602 6.4321C25.2602 6.1934 25.1654 5.96448 24.9966 5.7957C24.8279 5.62692 24.5989 5.5321 24.3602 5.5321C24.1216 5.5321 23.8926 5.62692 23.7239 5.7957C23.5551 5.96448 23.4602 6.1934 23.4602 6.4321C23.4602 7.3011 22.7542 8.0071 21.8862 8.0071H20.3822C21.4352 6.91982 22.024 5.46566 22.0242 3.9521V3.7821C22.0242 2.8551 21.2692 2.1001 20.3422 2.1001H11.6602C10.7322 2.1001 9.97825 2.8541 9.97825 3.7821V3.9521C9.97825 5.8811 10.9202 7.5911 12.3642 8.6581C10.5192 9.3391 8.85225 10.5411 7.49725 12.2091C4.98625 15.3001 3.85525 19.6441 4.61525 23.2761C5.85825 29.2131 11.7082 29.9001 16.0002 29.9001C20.2922 29.9001 26.1432 29.2131 27.3852 23.2761C28.1462 19.6441 27.0152 15.3001 24.5032 12.2091ZM15.8332 8.0071C14.7582 8.00577 13.7276 7.57813 12.9674 6.81795C12.2072 6.05778 11.7796 5.02714 11.7782 3.9521V3.9001H20.2222V3.9521C20.2212 5.02705 19.7938 6.05769 19.0337 6.81789C18.2737 7.5781 17.2432 8.00577 16.1682 8.0071H15.8332ZM25.6232 22.9071C24.8612 26.5471 21.9832 28.1001 16.0002 28.1001C10.0172 28.1001 7.13925 26.5471 6.37725 22.9071C5.72325 19.7841 6.71125 16.0311 8.89425 13.3441C10.7472 11.0631 13.2702 9.8071 16.0002 9.8071C18.7292 9.8071 21.2542 11.0631 23.1062 13.3441C25.2892 16.0311 26.2762 19.7851 25.6232 22.9071Z" fill="#181C25"/>
<path d="M16.1941 18.0769C14.9481 17.7929 14.9321 17.5069 14.9341 17.4749C14.9751 16.8679 16.3731 16.7719 16.7461 16.7079C16.7461 16.9466 16.8409 17.1755 17.0097 17.3443C17.1785 17.5131 17.4074 17.6079 17.6461 17.6079C17.8848 17.6079 18.1137 17.5131 18.2825 17.3443C18.4513 17.1755 18.5461 16.9466 18.5461 16.7079C18.5461 16.2349 18.3511 15.7749 18.0101 15.4459C17.71 15.1559 17.3141 14.9858 16.8971 14.9679V14.8419C16.8971 14.6032 16.8023 14.3743 16.6335 14.2055C16.4647 14.0367 16.2358 13.9419 15.9971 13.9419C15.7584 13.9419 15.5295 14.0367 15.3607 14.2055C15.1919 14.3743 15.0971 14.6032 15.0971 14.8419V15.2039C13.5291 15.6719 13.1831 16.6899 13.1381 17.3519C13.0551 18.5769 13.9491 19.4109 15.7951 19.8309C16.8401 20.0689 17.0701 20.3509 17.0681 20.4309C17.0511 21.0519 15.4701 21.1399 15.2431 21.1609C15.2321 20.9265 15.13 20.7056 14.9585 20.5454C14.787 20.3852 14.5597 20.2983 14.3251 20.3033C14.0905 20.3083 13.8671 20.4047 13.7025 20.572C13.5379 20.7393 13.4452 20.9642 13.4441 21.1989C13.4441 21.6779 13.6331 22.1239 13.9781 22.4569C14.2791 22.7479 14.6811 22.9149 15.0971 22.9399V23.0649C15.0971 23.3036 15.1919 23.5325 15.3607 23.7013C15.5295 23.8701 15.7584 23.9649 15.9971 23.9649C16.2358 23.9649 16.4647 23.8701 16.6335 23.7013C16.8023 23.5325 16.8971 23.3036 16.8971 23.0649V22.7029C18.5991 22.1939 18.8531 21.0379 18.8671 20.4779C18.8971 19.2949 17.9991 18.4869 16.1941 18.0769Z" fill="#0A5CFF"/>
</svg>
