<svg width="32" height="32" viewBox="0 0 32 32" fill="none" xmlns="http://www.w3.org/2000/svg">
<path d="M10.1309 12.2731V19.7261C10.1309 20.9081 11.0919 21.8691 12.2729 21.8691H19.7259C20.2941 21.8686 20.8388 21.6426 21.2406 21.2409C21.6424 20.8391 21.8683 20.2943 21.8689 19.7261V12.2731C21.8683 11.7049 21.6424 11.1602 21.2406 10.7584C20.8388 10.3566 20.2941 10.1307 19.7259 10.1301H12.2729C11.7049 10.1312 11.1606 10.3573 10.7591 10.759C10.3575 11.1607 10.1317 11.7052 10.1309 12.2731ZM20.0679 12.2731V19.7261C20.0679 19.8168 20.0318 19.9038 19.9677 19.968C19.9036 20.0321 19.8166 20.0681 19.7259 20.0681H12.2729C12.1822 20.0681 12.0952 20.0321 12.031 19.968C11.9669 19.9038 11.9309 19.8168 11.9309 19.7261V12.2731C11.9309 12.0851 12.0849 11.9311 12.2729 11.9311H13.4789V13.7001C13.4789 14.3191 13.9829 14.8241 14.6029 14.8241H17.3979C18.0169 14.8241 18.5219 14.3191 18.5219 13.7001V11.9311H19.7269C19.8173 11.9317 19.9039 11.9679 19.9678 12.0319C20.0316 12.096 20.0676 12.1827 20.0679 12.2731ZM15.2789 11.9321H16.7209V13.0241H15.2789V11.9321Z" fill="#0A5CFF"/>
<path d="M17.0196 1.13506C16.8996 1.12309 16.7784 1.13537 16.6632 1.17117C16.548 1.20697 16.4412 1.26555 16.3491 1.34345C16.257 1.42134 16.1815 1.51695 16.1271 1.6246C16.0727 1.73225 16.0405 1.84974 16.0323 1.97008C16.0242 2.09043 16.0404 2.21118 16.0799 2.32516C16.1193 2.43914 16.1813 2.54401 16.2621 2.63356C16.3429 2.72311 16.4409 2.79551 16.5503 2.84644C16.6596 2.89737 16.7781 2.92581 16.8986 2.93006C23.7396 3.39406 29.0996 9.13506 29.0996 16.0001C29.0996 23.2241 23.2236 29.1001 15.9996 29.1001C13.0836 29.1001 10.2836 28.1211 8.00961 26.3701C7.07171 25.6404 6.2312 24.7935 5.50861 23.8501C5.36303 23.6624 5.15017 23.5387 4.91503 23.5051C4.6799 23.4715 4.44092 23.5307 4.24861 23.6701C4.05861 23.8101 3.92861 24.0201 3.89861 24.2601C3.86861 24.5001 3.92861 24.7401 4.06861 24.9301C4.91161 26.0471 5.94861 27.1271 7.08561 27.9391C9.65999 29.8613 12.7867 30.8999 15.9996 30.9001C24.2156 30.9001 30.8996 24.2151 30.8996 16.0001C30.8996 8.19106 24.8026 1.66106 17.0196 1.13506ZM2.89961 16.0001C2.89961 15.5001 2.49961 15.1001 1.99961 15.1001C1.49961 15.1001 1.09961 15.5001 1.09961 16.0001C1.09961 17.3991 1.29961 18.8001 1.67961 20.1301C1.68961 20.1501 1.68961 20.1801 1.69961 20.2001V20.2101C1.81961 20.5801 2.16961 20.8401 2.55961 20.8401C2.64961 20.8401 2.72961 20.8301 2.81961 20.8101C3.00605 20.7538 3.16922 20.6386 3.28462 20.4817C3.40002 20.3249 3.46142 20.1348 3.45961 19.9401C3.45961 19.8501 3.44961 19.7701 3.42961 19.6901C3.07961 18.5001 2.89961 17.2501 2.89961 16.0001ZM5.32961 6.89006C5.13725 6.75104 4.89848 6.69201 4.6635 6.7254C4.42852 6.75878 4.21564 6.88196 4.06961 7.06906C3.21799 8.20562 2.53432 9.45879 2.03961 10.7901C1.95583 11.0131 1.96346 11.2601 2.06083 11.4775C2.1582 11.6949 2.33745 11.8651 2.55961 11.9511C2.66961 11.9901 2.76961 12.0001 2.87961 12.0001C3.24961 12.0001 3.58961 11.7701 3.71961 11.4201C4.15961 10.2501 4.75961 9.14906 5.50961 8.14906C5.80961 7.75006 5.72961 7.18906 5.32961 6.89006ZM8.42961 5.12006C8.59961 5.12006 8.76961 5.06906 8.91961 4.97906C9.96961 4.29906 11.1096 3.78006 12.3096 3.42906C12.7896 3.28906 13.0596 2.78006 12.9196 2.30906C12.8486 2.08196 12.692 1.89141 12.4829 1.77775C12.2739 1.66408 12.0288 1.63622 11.7996 1.70006C10.4396 2.10006 9.13961 2.68906 7.93961 3.46006C7.68961 3.63006 7.52961 3.91006 7.52961 4.22006C7.52961 4.39006 7.57961 4.56006 7.66961 4.71006C7.83961 4.97006 8.12961 5.12006 8.42961 5.12006Z" fill="#181C25"/>
</svg>
