<svg width="32" height="32" viewBox="0 0 32 32" fill="none" xmlns="http://www.w3.org/2000/svg">
<path d="M23.0674 10.2667C23.8047 10.2667 24.4024 9.66898 24.4024 8.93168C24.4024 8.19438 23.8047 7.59668 23.0674 7.59668C22.3301 7.59668 21.7324 8.19438 21.7324 8.93168C21.7324 9.66898 22.3301 10.2667 23.0674 10.2667Z" fill="#181C25"/>
<path d="M30.7498 13.7489L29.2058 6.55692C29.0068 5.63452 28.5461 4.78906 27.8789 4.12182C27.2117 3.45459 26.3662 2.99389 25.4438 2.79492L18.2518 1.24992C17.4516 1.07654 16.6207 1.10711 15.8354 1.33882C15.0501 1.57052 14.3357 1.99593 13.7578 2.57592L2.57081 13.7629C1.65366 14.6831 1.13867 15.9293 1.13867 17.2284C1.13867 18.5276 1.65366 19.7738 2.57081 20.6939L11.3078 29.4289C12.2328 30.3549 13.4638 30.8649 14.7728 30.8649C16.0818 30.8649 17.3118 30.3549 18.2378 29.4289L29.4258 18.2409C29.881 17.7876 30.2422 17.2488 30.4888 16.6556C30.7354 16.0624 30.8625 15.4263 30.8628 14.7839C30.8608 14.436 30.8229 14.0891 30.7498 13.7489ZM28.1518 16.9689L16.9638 28.1559C16.3778 28.7419 15.5998 29.0639 14.7718 29.0639C13.9438 29.0639 13.1658 28.7419 12.5798 28.1559L3.84281 19.4209C3.55498 19.1333 3.32678 18.7918 3.1713 18.4158C3.01583 18.0398 2.93614 17.6368 2.93681 17.2299C2.93681 16.4349 3.23881 15.6419 3.84381 15.0379L15.0308 3.84892C15.3962 3.48167 15.8481 3.21225 16.3449 3.06545C16.8417 2.91866 17.3675 2.89922 17.8738 3.00892L25.0648 4.55392C25.6485 4.67952 26.1835 4.97089 26.6057 5.39306C27.0278 5.81522 27.3192 6.35025 27.4448 6.93392L28.9888 14.1249C29.0992 14.6311 29.0805 15.157 28.9342 15.654C28.7879 16.151 28.5188 16.6032 28.1518 16.9689Z" fill="#181C25"/>
<path d="M19.1 14.167L19.348 13.919C19.4317 13.8355 19.4981 13.7363 19.5434 13.6271C19.5887 13.5179 19.6121 13.4009 19.6122 13.2827C19.6123 13.1645 19.5891 13.0474 19.5439 12.9382C19.4988 12.8289 19.4326 12.7296 19.349 12.646C19.2655 12.5623 19.1663 12.4959 19.0572 12.4506C18.948 12.4053 18.831 12.3819 18.7127 12.3818C18.5945 12.3817 18.4775 12.4049 18.3682 12.4501C18.259 12.4952 18.1597 12.5615 18.076 12.645L17.65 13.071C15.91 12.072 14.765 12.624 14.179 13.134C13.13 14.051 13.196 15.464 14.372 17.335C14.967 18.28 15.173 18.984 14.924 19.223C14.251 19.862 12.814 18.62 12.39 18.225C12.348 18.186 12.347 18.109 12.34 18.112C12.34 18.072 12.354 18.038 12.382 18.01C12.4686 17.9271 12.5377 17.8278 12.5854 17.7179C12.6331 17.608 12.6583 17.4897 12.6596 17.3698C12.661 17.25 12.6383 17.1312 12.5931 17.0202C12.5479 16.9093 12.481 16.8085 12.3963 16.7237C12.3116 16.639 12.2109 16.572 12.1 16.5267C11.989 16.4814 11.8702 16.4587 11.7504 16.4599C11.6306 16.4611 11.5122 16.4863 11.4023 16.5339C11.2923 16.5814 11.193 16.6505 11.11 16.737C10.7429 17.1139 10.5386 17.6199 10.541 18.146C10.55 18.673 10.777 19.182 11.164 19.542L11.172 19.549L10.925 19.796C10.7562 19.9648 10.6614 20.1937 10.6614 20.4325C10.6614 20.6712 10.7562 20.9002 10.925 21.069C11.0938 21.2378 11.3228 21.3326 11.5615 21.3326C11.8003 21.3326 12.0292 21.2378 12.198 21.069L12.621 20.646C14.509 21.731 15.689 20.979 16.164 20.528C17.139 19.605 17.049 18.208 15.896 16.377C15.271 15.384 15.087 14.732 15.363 14.491C16.014 13.924 17.224 14.877 17.888 15.496C17.902 15.5088 17.9129 15.5244 17.9202 15.5419C17.9274 15.5593 17.9308 15.5781 17.93 15.597C17.9301 15.6165 17.9262 15.6359 17.9186 15.6539C17.9111 15.6719 17.9 15.6883 17.886 15.702C17.7995 15.7848 17.7304 15.8841 17.6827 15.9941C17.635 16.104 17.6098 16.2223 17.6085 16.3421C17.6071 16.4619 17.6297 16.5808 17.6749 16.6917C17.7202 16.8027 17.7871 16.9035 17.8718 16.9883C17.9564 17.073 18.0572 17.14 18.1681 17.1853C18.279 17.2306 18.3979 17.2533 18.5177 17.2521C18.6375 17.2508 18.7558 17.2257 18.8658 17.1781C18.9758 17.1305 19.0751 17.0615 19.158 16.975C19.523 16.6084 19.7283 16.1123 19.729 15.595V15.562C19.7253 15.302 19.669 15.0454 19.5635 14.8077C19.4579 14.57 19.3054 14.3561 19.115 14.179C19.109 14.176 19.105 14.172 19.1 14.167Z" fill="#0A5CFF"/>
</svg>
