<svg width="32" height="32" viewBox="0 0 32 32" fill="none" xmlns="http://www.w3.org/2000/svg">
<path d="M22.9996 3.79609C24.1576 3.79609 25.0996 4.73809 25.0996 5.89609V13.4761C25.0996 13.7148 25.1944 13.9437 25.3632 14.1125C25.532 14.2813 25.7609 14.3761 25.9996 14.3761C26.2383 14.3761 26.4672 14.2813 26.636 14.1125C26.8048 13.9437 26.8996 13.7148 26.8996 13.4761V5.89609C26.8996 3.74609 25.1496 1.99609 22.9996 1.99609H4.99961C2.84961 1.99609 1.09961 3.74609 1.09961 5.89609V23.8961C1.09961 26.0461 2.84961 27.7961 4.99961 27.7961H14.8096C15.0483 27.7961 15.2772 27.7013 15.446 27.5325C15.6148 27.3637 15.7096 27.1348 15.7096 26.8961C15.7096 26.6574 15.6148 26.4285 15.446 26.2597C15.2772 26.0909 15.0483 25.9961 14.8096 25.9961H4.99961C3.84161 25.9961 2.89961 25.0541 2.89961 23.8961V5.89609C2.89961 4.73809 3.84161 3.79609 4.99961 3.79609H9.18461V9.34209C9.18461 10.1361 9.83061 10.7821 10.6246 10.7821H17.3746C18.1686 10.7821 18.8146 10.1361 18.8146 9.34209V3.79609H22.9996ZM17.0146 8.98209H10.9846V3.79609H17.0146V8.98209Z" fill="#181C25"/>
<path d="M6.28574 21.71C6.04705 21.71 5.81813 21.8048 5.64935 21.9736C5.48056 22.1423 5.38574 22.3713 5.38574 22.61C5.38574 22.8487 5.48056 23.0776 5.64935 23.2464C5.81813 23.4151 6.04705 23.51 6.28574 23.51H10.0047C10.2434 23.51 10.4724 23.4151 10.6411 23.2464C10.8099 23.0776 10.9047 22.8487 10.9047 22.61C10.9047 22.3713 10.8099 22.1423 10.6411 21.9736C10.4724 21.8048 10.2434 21.71 10.0047 21.71H6.28574Z" fill="#181C25"/>
<path d="M24.1782 22.1059C23.5902 21.9719 23.4222 21.8439 23.4032 21.8729C23.4292 21.7639 23.7362 21.6119 24.3652 21.5619C24.43 21.7666 24.5659 21.9413 24.7483 22.0546C24.9307 22.1679 25.1475 22.2123 25.3598 22.1797C25.572 22.1471 25.7656 22.0397 25.9056 21.8769C26.0456 21.7141 26.1227 21.5066 26.1232 21.2919C26.1222 20.9311 25.9953 20.5819 25.7644 20.3048C25.5334 20.0276 25.2129 19.8398 24.8582 19.7739C24.8335 19.5578 24.7305 19.3582 24.5688 19.2129C24.407 19.0675 24.1976 18.9864 23.9802 18.9849C23.7415 18.9849 23.5125 19.0797 23.3438 19.2485C23.175 19.4172 23.0802 19.6462 23.0802 19.8849V19.9929C21.9062 20.3999 21.6422 21.2219 21.6052 21.7609C21.5552 22.4829 21.8922 23.4319 23.7792 23.8619C24.3192 23.9849 24.5132 24.1119 24.5552 24.1299C24.5052 24.1879 24.2442 24.3539 23.5922 24.4059C23.5285 24.1998 23.3929 24.0234 23.2101 23.9089C23.0273 23.7945 22.8094 23.7496 22.5962 23.7825C22.383 23.8153 22.1887 23.9238 22.0488 24.088C21.9089 24.2521 21.8327 24.4612 21.8342 24.6769C21.8342 25.0979 22.0012 25.4909 22.3052 25.7839C22.5252 25.9959 22.8042 26.1359 23.1022 26.1909C23.1582 26.6339 23.5222 26.9829 23.9802 26.9829C24.2189 26.9829 24.4478 26.888 24.6166 26.7193C24.7853 26.5505 24.8802 26.3216 24.8802 26.0829V25.9669C26.1512 25.5199 26.3522 24.5959 26.3632 24.1399C26.3842 23.4429 26.0202 22.5249 24.1782 22.1059Z" fill="#0A5CFF"/>
<path d="M23.984 16C20.133 16 17 19.134 17 22.984C17 26.834 20.134 29.967 23.984 29.967C27.834 29.967 30.967 26.834 30.967 22.984C30.967 19.134 27.835 16 23.984 16ZM23.984 28.167C21.126 28.167 18.8 25.843 18.8 22.984C18.8 20.125 21.125 17.8 23.984 17.8C26.843 17.8 29.167 20.125 29.167 22.984C29.167 25.843 26.842 28.167 23.984 28.167Z" fill="#0A5CFF"/>
</svg>
