<svg width="32" height="32" viewBox="0 0 32 32" fill="none" xmlns="http://www.w3.org/2000/svg">
<path d="M14.3735 8.18799H7.59445C6.47545 8.18799 5.56445 9.09899 5.56445 10.218V16.219C5.56445 17.338 6.47545 18.249 7.59445 18.249H14.3735C15.4925 18.249 16.4035 17.338 16.4035 16.219V10.218C16.4027 9.67984 16.1885 9.16397 15.808 8.78344C15.4275 8.40291 14.9116 8.18878 14.3735 8.18799ZM10.4095 9.98799H11.5585V10.819H10.4095V9.98799ZM14.6035 16.219C14.6032 16.2798 14.5788 16.3381 14.5357 16.381C14.4926 16.4239 14.4343 16.448 14.3735 16.448H7.59445C7.53363 16.448 7.47528 16.4239 7.43217 16.381C7.38907 16.3381 7.36472 16.2798 7.36445 16.219V10.218C7.36472 10.1572 7.38907 10.0989 7.43217 10.056C7.47528 10.0131 7.53363 9.98899 7.59445 9.98899H8.60945V11.516C8.60945 12.124 9.10445 12.62 9.71245 12.62H12.2545C12.8625 12.62 13.3575 12.124 13.3575 11.516V9.98799H14.3725C14.4333 9.98799 14.4916 10.0121 14.5347 10.055C14.5778 10.0979 14.6022 10.1562 14.6025 10.217L14.6035 16.219Z" fill="#0A5CFF"/>
<path d="M25.5347 10.75H18.9537C18.715 10.75 18.4861 10.8448 18.3173 11.0136C18.1485 11.1824 18.0537 11.4113 18.0537 11.65C18.0537 11.8887 18.1485 12.1176 18.3173 12.2864C18.4861 12.4552 18.715 12.55 18.9537 12.55H25.5347C25.7734 12.55 26.0023 12.4552 26.1711 12.2864C26.3399 12.1176 26.4347 11.8887 26.4347 11.65C26.4347 11.4113 26.3399 11.1824 26.1711 11.0136C26.0023 10.8448 25.7734 10.75 25.5347 10.75ZM22.3617 13.886H18.9537C18.715 13.886 18.4861 13.9808 18.3173 14.1496C18.1485 14.3184 18.0537 14.5473 18.0537 14.786C18.0537 15.0247 18.1485 15.2536 18.3173 15.4224C18.4861 15.5912 18.715 15.686 18.9537 15.686H22.3617C22.6004 15.686 22.8293 15.5912 22.9981 15.4224C23.1669 15.2536 23.2617 15.0247 23.2617 14.786C23.2617 14.5473 23.1669 14.3184 22.9981 14.1496C22.8293 13.9808 22.6004 13.886 22.3617 13.886Z" fill="#181C25"/>
<path d="M27.0776 2.25586H4.92161C3.90828 2.25692 2.93675 2.65993 2.22022 3.37647C1.50368 4.093 1.10067 5.06453 1.09961 6.07786V20.3579C1.1004 21.3714 1.5033 22.3431 2.21986 23.0599C2.93643 23.7766 3.9081 24.1798 4.92161 24.1809H11.5436V27.9429H9.16361C8.92491 27.9429 8.696 28.0377 8.52721 28.2065C8.35843 28.3752 8.26361 28.6042 8.26361 28.8429C8.26361 29.0816 8.35843 29.3105 8.52721 29.4793C8.696 29.648 8.92491 29.7429 9.16361 29.7429H22.8366C23.0753 29.7429 23.3042 29.648 23.473 29.4793C23.6418 29.3105 23.7366 29.0816 23.7366 28.8429C23.7366 28.6042 23.6418 28.3752 23.473 28.2065C23.3042 28.0377 23.0753 27.9429 22.8366 27.9429H20.4566V24.1809H27.0786C28.092 24.1795 29.0636 23.7763 29.7801 23.0596C30.4966 22.3429 30.8995 21.3713 30.9006 20.3579V6.07786C30.899 5.06452 30.4957 4.09315 29.7791 3.3767C29.0624 2.66025 28.091 2.25718 27.0776 2.25586ZM18.6566 27.9429H13.3436V24.1809H18.6566V27.9429ZM29.0996 20.3579C29.0991 20.894 28.8859 21.408 28.5068 21.787C28.1277 22.1661 27.6137 22.3793 27.0776 22.3799H4.92161C4.3855 22.3793 3.87151 22.1661 3.49242 21.787C3.11334 21.408 2.90014 20.894 2.89961 20.3579V6.07786C2.89961 4.96286 3.80661 4.05686 4.92161 4.05686H27.0776C28.1926 4.05686 29.0996 4.96286 29.0996 6.07786V20.3579Z" fill="#181C25"/>
</svg>
