<svg width="32" height="32" viewBox="0 0 32 32" fill="none" xmlns="http://www.w3.org/2000/svg">
<path d="M7.912 10.0001H3C2.73478 10.0001 2.48043 9.89471 2.29289 9.70717C2.10536 9.51963 2 9.26528 2 9.00006C2 8.73485 2.10536 8.48049 2.29289 8.29296C2.48043 8.10542 2.73478 8.00006 3 8.00006H7.912C9.02602 8.00122 10.1237 8.26769 11.1143 8.77743C12.1049 9.28716 12.9598 10.0255 13.6082 10.9313L14.771 12.5591L13.542 14.2796L11.9808 12.0938C11.5176 11.4468 10.907 10.9193 10.1994 10.5552C9.49185 10.1911 8.70774 10.0008 7.912 10.0001ZM29.707 8.29306L25.707 4.29306C25.3163 3.90231 24.6835 3.90231 24.293 4.29306C23.9025 4.68381 23.9022 5.31656 24.293 5.70706L26.586 8.00006H24.088C22.9739 8.00124 21.876 8.26777 20.8854 8.77759C19.8947 9.28742 19.0398 10.0259 18.3913 10.9318L11.9815 19.9058C11.5182 20.553 10.9075 21.0805 10.1998 21.4447C9.49213 21.8089 8.70789 21.9992 7.912 22.0001H3C2.73478 22.0001 2.48043 22.1054 2.29289 22.293C2.10536 22.4805 2 22.7348 2 23.0001C2 23.2653 2.10536 23.5196 2.29289 23.7072C2.48043 23.8947 2.73478 24.0001 3 24.0001H7.912C9.02614 23.9989 10.124 23.7324 11.1146 23.2225C12.1053 22.7127 12.9602 21.9743 13.6088 21.0683L20.0185 12.0943C20.4818 11.4471 21.0925 10.9196 21.8002 10.5554C22.5079 10.1913 23.2921 10.0009 24.088 10.0001H26.586L24.293 12.2931C24.2001 12.3859 24.1264 12.4961 24.0761 12.6174C24.0258 12.7387 23.9999 12.8687 23.9999 13.0001C23.9999 13.1314 24.0258 13.2614 24.0761 13.3827C24.1264 13.504 24.2001 13.6143 24.293 13.7071C24.4882 13.9023 24.7442 14.0001 25 14.0001C25.2558 14.0001 25.5118 13.9023 25.707 13.7071L29.707 9.70706C29.7999 9.61426 29.8736 9.50405 29.9239 9.38274C29.9742 9.26142 30.0001 9.13139 30.0001 9.00006C30.0001 8.86874 29.9742 8.7387 29.9239 8.61739C29.8736 8.49608 29.7999 8.38587 29.707 8.29306Z" fill="#181C25"/>
<path d="M25.7065 18.2932L29.7065 22.2932C29.7994 22.386 29.8731 22.4962 29.9234 22.6175C29.9737 22.7388 29.9996 22.8689 29.9996 23.0002C29.9996 23.1315 29.9737 23.2616 29.9234 23.3829C29.8731 23.5042 29.7994 23.6144 29.7065 23.7072L25.7065 27.7072C25.5113 27.9025 25.2553 28.0002 24.9995 28.0002C24.7438 28.0002 24.4878 27.9025 24.2925 27.7072C24.1996 27.6144 24.1259 27.5042 24.0756 27.3829C24.0253 27.2616 23.9994 27.1315 23.9994 27.0002C23.9994 26.8689 24.0253 26.7388 24.0756 26.6175C24.1259 26.4962 24.1996 26.386 24.2925 26.2932L26.5855 24.0002H24.0875C22.9735 23.9991 21.8758 23.7326 20.8852 23.2229C19.8946 22.7132 19.0397 21.9748 18.3913 21.069L17.2285 19.4412L18.4575 17.7207L20.0188 19.9065C20.482 20.5535 21.0926 21.0809 21.8001 21.445C22.5077 21.8091 23.2918 21.9994 24.0875 22.0002H26.5855L24.2925 19.7072C23.9018 19.3167 23.902 18.684 24.2925 18.2932C24.683 17.9025 25.3158 17.9025 25.7065 18.2932Z" fill="#0A5CFF"/>
</svg>
