<svg width="32" height="32" viewBox="0 0 32 32" fill="none" xmlns="http://www.w3.org/2000/svg">
<path d="M29.9996 20.6001C29.7609 20.6001 29.532 20.6949 29.3632 20.8637C29.1944 21.0325 29.0996 21.2614 29.0996 21.5001V26.0001C29.0996 27.7091 27.7086 29.1001 25.9996 29.1001H21.4996C21.2609 29.1001 21.032 29.1949 20.8632 29.3637C20.6944 29.5325 20.5996 29.7614 20.5996 30.0001C20.5996 30.2388 20.6944 30.4677 20.8632 30.6365C21.032 30.8053 21.2609 30.9001 21.4996 30.9001H25.9996C28.7016 30.9001 30.8996 28.7021 30.8996 26.0001V21.5001C30.8996 21.2614 30.8048 21.0325 30.636 20.8637C30.4672 20.6949 30.2383 20.6001 29.9996 20.6001ZM25.9996 1.1001H21.4996C21.2609 1.1001 21.032 1.19492 20.8632 1.3637C20.6944 1.53248 20.5996 1.7614 20.5996 2.0001C20.5996 2.23879 20.6944 2.46771 20.8632 2.63649C21.032 2.80528 21.2609 2.9001 21.4996 2.9001H25.9996C27.7086 2.9001 29.0996 4.2911 29.0996 6.0001V10.5001C29.0996 10.7388 29.1944 10.9677 29.3632 11.1365C29.532 11.3053 29.7609 11.4001 29.9996 11.4001C30.2383 11.4001 30.4672 11.3053 30.636 11.1365C30.8048 10.9677 30.8996 10.7388 30.8996 10.5001V6.0001C30.8996 3.2981 28.7016 1.1001 25.9996 1.1001ZM1.99961 11.4001C2.2383 11.4001 2.46722 11.3053 2.63601 11.1365C2.80479 10.9677 2.89961 10.7388 2.89961 10.5001V6.0001C2.89961 4.2911 4.29061 2.9001 5.99961 2.9001H10.4996C10.7383 2.9001 10.9672 2.80528 11.136 2.63649C11.3048 2.46771 11.3996 2.23879 11.3996 2.0001C11.3996 1.7614 11.3048 1.53248 11.136 1.3637C10.9672 1.19492 10.7383 1.1001 10.4996 1.1001H5.99961C4.70045 1.10142 3.45489 1.61809 2.53625 2.53674C1.61761 3.45538 1.10093 4.70094 1.09961 6.0001V10.5001C1.09961 10.7388 1.19443 10.9677 1.36321 11.1365C1.532 11.3053 1.76091 11.4001 1.99961 11.4001ZM10.4996 29.1001H5.99961C5.17776 29.099 4.38988 28.7721 3.80875 28.191C3.22761 27.6098 2.90067 26.8219 2.89961 26.0001V21.5001C2.89961 21.2614 2.80479 21.0325 2.63601 20.8637C2.46722 20.6949 2.2383 20.6001 1.99961 20.6001C1.76091 20.6001 1.532 20.6949 1.36321 20.8637C1.19443 21.0325 1.09961 21.2614 1.09961 21.5001V26.0001C1.09961 28.7021 3.29761 30.9001 5.99961 30.9001H10.4996C10.7383 30.9001 10.9672 30.8053 11.136 30.6365C11.3048 30.4677 11.3996 30.2388 11.3996 30.0001C11.3996 29.7614 11.3048 29.5325 11.136 29.3637C10.9672 29.1949 10.7383 29.1001 10.4996 29.1001Z" fill="#181C25"/>
<path d="M15.9998 11.8003C13.6848 11.8003 11.7998 13.6843 11.7998 16.0003C11.7998 18.3163 13.6848 20.2003 15.9998 20.2003C18.3148 20.2003 20.1998 18.3163 20.1998 16.0003C20.1998 13.6843 18.3148 11.8003 15.9998 11.8003ZM15.9998 18.4003C14.6768 18.4003 13.6008 17.3233 13.6008 16.0003C13.6008 14.6773 14.6768 13.6003 15.9998 13.6003C17.3228 13.6003 18.3988 14.6773 18.3988 16.0003C18.3988 17.3233 17.3228 18.4003 15.9998 18.4003Z" fill="#0A5CFF"/>
<path d="M26.2423 17.2011C26.5073 16.8568 26.651 16.4345 26.651 16.0001C26.651 15.5656 26.5073 15.1434 26.2423 14.7991C24.7663 12.8851 20.8123 8.43408 15.9993 8.43408C11.1863 8.43408 7.23235 12.8861 5.75635 14.7991C5.49135 15.1434 5.34766 15.5656 5.34766 16.0001C5.34766 16.4345 5.49135 16.8568 5.75635 17.2011C7.23335 19.1151 11.1863 23.5661 15.9993 23.5661C20.8123 23.5661 24.7663 19.1151 26.2423 17.2011ZM15.9993 21.7671C11.8713 21.7671 8.20635 17.4311 7.18235 16.1021C7.15869 16.0735 7.14574 16.0376 7.14574 16.0006C7.14574 15.9635 7.15869 15.9276 7.18235 15.8991C8.20635 14.5701 11.8713 10.2341 15.9993 10.2341C20.1273 10.2341 23.7923 14.5701 24.8163 15.8991C24.84 15.9276 24.853 15.9635 24.853 16.0006C24.853 16.0376 24.84 16.0735 24.8163 16.1021C23.7923 17.4311 20.1273 21.7671 15.9993 21.7671Z" fill="#0A5CFF"/>
</svg>
