<svg width="32" height="32" viewBox="0 0 32 32" fill="none" xmlns="http://www.w3.org/2000/svg">
<path d="M30.6366 29.3631L28.1996 26.9261C28.8595 26.0109 29.2149 24.9114 29.2156 23.7831C29.2156 22.3321 28.6516 20.9681 27.6246 19.9411C26.5976 18.9141 25.2336 18.3501 23.7826 18.3501C22.3316 18.3501 20.9676 18.9141 19.9416 19.9411C18.9146 20.9671 18.3496 22.3321 18.3496 23.7831C18.3496 25.2341 18.9136 26.5981 19.9406 27.6241C20.4438 28.1305 21.0425 28.5319 21.702 28.8052C22.3615 29.0785 23.0687 29.2181 23.7826 29.2161C24.9109 29.2152 26.0103 28.8598 26.9256 28.2001L29.3626 30.6371C29.4461 30.721 29.5454 30.7876 29.6548 30.833C29.7642 30.8784 29.8814 30.9017 29.9998 30.9016C30.1182 30.9015 30.2354 30.878 30.3447 30.8325C30.454 30.7869 30.5532 30.7202 30.6366 30.6361C30.8052 30.4672 30.8999 30.2383 30.8999 29.9996C30.8999 29.7609 30.8052 29.532 30.6366 29.3631ZM21.2146 26.3521C20.8762 26.0157 20.6079 25.6156 20.4252 25.1747C20.2426 24.7339 20.1492 24.2612 20.1506 23.7841C20.1506 22.8131 20.5286 21.9011 21.2146 21.2151C21.9006 20.5291 22.8126 20.1521 23.7826 20.1521C24.7526 20.1521 25.6656 20.5301 26.3516 21.2161C27.0376 21.9021 27.4146 22.8141 27.4146 23.7841C27.4146 24.7541 27.0366 25.6671 26.3506 26.3521C24.9786 27.7251 22.5856 27.7251 21.2146 26.3521Z" fill="#0A5CFF"/>
<path d="M18.8146 8.4461V2.9001H22.9996C24.1576 2.9001 25.0996 3.8411 25.0996 5.0001V16.0701C25.0996 16.3088 25.1944 16.5377 25.3632 16.7065C25.532 16.8753 25.7609 16.9701 25.9996 16.9701C26.2383 16.9701 26.4672 16.8753 26.636 16.7065C26.8048 16.5377 26.8996 16.3088 26.8996 16.0701V5.0001C26.8996 2.8501 25.1496 1.1001 22.9996 1.1001H4.99961C2.84961 1.1001 1.09961 2.8501 1.09961 5.0001V23.0001C1.09961 25.1501 2.84961 26.9001 4.99961 26.9001H16.0696C16.3083 26.9001 16.5372 26.8053 16.706 26.6365C16.8748 26.4677 16.9696 26.2388 16.9696 26.0001C16.9696 25.7614 16.8748 25.5325 16.706 25.3637C16.5372 25.1949 16.3083 25.1001 16.0696 25.1001H4.99961C3.84161 25.1001 2.89961 24.1591 2.89961 23.0001V5.0001C2.89961 3.8421 3.84061 2.9001 4.99961 2.9001H9.18461V8.4461C9.18461 9.2401 9.83061 9.8861 10.6246 9.8861H17.3746C17.7564 9.88583 18.1226 9.73403 18.3925 9.46404C18.6625 9.19404 18.8143 8.82793 18.8146 8.4461ZM10.9846 8.0861V2.9001H17.0136V8.0861H10.9846Z" fill="#181C25"/>
<path d="M6.28574 20.813C6.04705 20.813 5.81813 20.9078 5.64935 21.0766C5.48056 21.2454 5.38574 21.4743 5.38574 21.713C5.38574 21.9517 5.48056 22.1806 5.64935 22.3494C5.81813 22.5182 6.04705 22.613 6.28574 22.613H10.0047C10.2434 22.613 10.4724 22.5182 10.6411 22.3494C10.8099 22.1806 10.9047 21.9517 10.9047 21.713C10.9047 21.4743 10.8099 21.2454 10.6411 21.0766C10.4724 20.9078 10.2434 20.813 10.0047 20.813H6.28574Z" fill="#181C25"/>
</svg>
