<svg width="32" height="32" viewBox="0 0 32 32" fill="none" xmlns="http://www.w3.org/2000/svg">
<path d="M1.99961 6.4481C2.1178 6.4481 2.23483 6.42482 2.34402 6.37959C2.45322 6.33436 2.55243 6.26807 2.63601 6.18449C2.71958 6.10092 2.78587 6.00171 2.8311 5.89251C2.87633 5.78332 2.89961 5.66629 2.89961 5.5481V2.9001H5.54761C5.7863 2.9001 6.01522 2.80528 6.18401 2.63649C6.35279 2.46771 6.44761 2.23879 6.44761 2.0001C6.44761 1.7614 6.35279 1.53248 6.18401 1.3637C6.01522 1.19492 5.7863 1.1001 5.54761 1.1001H2.74661C1.83861 1.1001 1.09961 1.8391 1.09961 2.7461V5.5481C1.09961 5.66629 1.12289 5.78332 1.16812 5.89251C1.21335 6.00171 1.27964 6.10092 1.36321 6.18449C1.44679 6.26807 1.546 6.33436 1.65519 6.37959C1.76439 6.42482 1.88142 6.4481 1.99961 6.4481ZM29.2526 1.1001H26.4516C26.2129 1.1001 25.984 1.19492 25.8152 1.3637C25.6464 1.53248 25.5516 1.7614 25.5516 2.0001C25.5516 2.23879 25.6464 2.46771 25.8152 2.63649C25.984 2.80528 26.2129 2.9001 26.4516 2.9001H29.0996V5.5471C29.0996 5.78579 29.1944 6.01471 29.3632 6.18349C29.532 6.35228 29.7609 6.4471 29.9996 6.4471C30.2383 6.4471 30.4672 6.35228 30.636 6.18349C30.8048 6.01471 30.8996 5.78579 30.8996 5.5471V2.7461C30.8996 1.8391 30.1606 1.1001 29.2526 1.1001ZM5.54761 29.1001H2.89961V26.4531C2.89961 26.2144 2.80479 25.9855 2.63601 25.8167C2.46722 25.6479 2.2383 25.5531 1.99961 25.5531C1.76091 25.5531 1.532 25.6479 1.36321 25.8167C1.19443 25.9855 1.09961 26.2144 1.09961 26.4531V29.2551C1.09961 30.1621 1.83861 30.9011 2.74561 30.9011H5.54661C5.78544 30.9012 6.01454 30.8065 6.18351 30.6377C6.35248 30.4689 6.44748 30.2399 6.44761 30.0011C6.44774 29.7623 6.353 29.5332 6.18421 29.3642C6.01543 29.1952 5.78644 29.1002 5.54761 29.1001ZM29.9996 25.5521C29.7609 25.5521 29.532 25.6469 29.3632 25.8157C29.1944 25.9845 29.0996 26.2134 29.0996 26.4521V29.1001H26.4516C26.2129 29.1001 25.984 29.1949 25.8152 29.3637C25.6464 29.5325 25.5516 29.7614 25.5516 30.0001C25.5516 30.2388 25.6464 30.4677 25.8152 30.6365C25.984 30.8053 26.2129 30.9001 26.4516 30.9001H29.2526C30.1606 30.9001 30.8986 30.1611 30.8986 29.2541V26.4521C30.8987 26.334 30.8756 26.2169 30.8305 26.1078C30.7853 25.9986 30.7191 25.8993 30.6357 25.8158C30.5522 25.7322 30.453 25.6659 30.3439 25.6206C30.2347 25.5754 30.1178 25.5521 29.9996 25.5521Z" fill="#0A5CFF"/>
<path d="M25.6496 9.4381C25.6485 8.61961 25.323 7.83493 24.7443 7.25607C24.1656 6.67722 23.3811 6.35142 22.5626 6.3501H9.43759C8.61893 6.35089 7.83405 6.67652 7.25527 7.25549C6.67649 7.83446 6.35112 8.61944 6.35059 9.4381V22.5631C6.35164 23.3816 6.67719 24.1663 7.25586 24.7451C7.83452 25.324 8.6191 25.6498 9.43759 25.6511H22.5626C23.3812 25.6503 24.1661 25.3247 24.7449 24.7457C25.3237 24.1667 25.6491 23.3817 25.6496 22.5631V9.4381ZM14.0446 8.1501H17.9546V11.4431H14.0446V8.1501ZM23.8496 22.5631C23.8496 23.2731 23.2716 23.8501 22.5616 23.8501H9.43759C8.72759 23.8501 8.14959 23.2731 8.14959 22.5631V9.4381C8.14959 8.7281 8.72759 8.1511 9.43759 8.1511H12.2456V11.9511C12.2456 12.6641 12.8266 13.2451 13.5396 13.2451H18.4616C19.1746 13.2451 19.7556 12.6641 19.7556 11.9511V8.1511H22.5636C23.2736 8.1511 23.8516 8.7281 23.8516 9.4381V22.5631H23.8496Z" fill="#181C25"/>
<path d="M14.0446 19.7661H11.3336C11.0949 19.7661 10.866 19.8609 10.6972 20.0297C10.5284 20.1985 10.4336 20.4274 10.4336 20.6661C10.4336 20.9048 10.5284 21.1337 10.6972 21.3025C10.866 21.4713 11.0949 21.5661 11.3336 21.5661H14.0446C14.2833 21.5661 14.5122 21.4713 14.681 21.3025C14.8498 21.1337 14.9446 20.9048 14.9446 20.6661C14.9446 20.4274 14.8498 20.1985 14.681 20.0297C14.5122 19.8609 14.2833 19.7661 14.0446 19.7661Z" fill="#181C25"/>
</svg>
