<svg width="32" height="32" viewBox="0 0 32 32" fill="none" xmlns="http://www.w3.org/2000/svg">
<path d="M12.9108 7.0281L12.6098 8.7851C12.5288 9.2581 12.7198 9.7261 13.1088 10.0081C13.2972 10.1456 13.5205 10.2275 13.7532 10.2443C13.9859 10.2611 14.2186 10.2121 14.4248 10.1031L16.0028 9.2731L17.5798 10.1021C18.0038 10.3251 18.5088 10.2881 18.8958 10.0081C19.2848 9.7261 19.4758 9.2581 19.3948 8.7841L19.0938 7.0281L20.3648 5.7891C20.7088 5.4541 20.8308 4.9611 20.6828 4.5041C20.5348 4.0471 20.1468 3.7201 19.6708 3.6501L17.9138 3.3951L17.1248 1.7971C16.9108 1.3671 16.4808 1.1001 16.0008 1.1001C15.5208 1.1001 15.0918 1.3671 14.8798 1.7971L14.0908 3.3951L12.3268 3.6511C11.8518 3.7201 11.4658 4.0471 11.3178 4.5031C11.1698 4.9591 11.2918 5.4501 11.6338 5.7841L12.9108 7.0281ZM14.8178 5.1081C14.9622 5.08704 15.0993 5.03127 15.2174 4.94558C15.3355 4.85989 15.431 4.74683 15.4958 4.6161L16.0008 3.5921L16.5068 4.6161C16.6378 4.8821 16.8918 5.0661 17.1848 5.1081L18.3148 5.2721L17.4968 6.0701C17.3924 6.17207 17.3142 6.29787 17.2691 6.43669C17.224 6.57551 17.2133 6.72321 17.2378 6.8671L17.4308 7.9921L16.4208 7.4601C16.2918 7.39213 16.1481 7.35662 16.0023 7.35662C15.8565 7.35662 15.7128 7.39213 15.5838 7.4601L14.5718 7.9921L14.7648 6.8671C14.7893 6.72321 14.7786 6.57551 14.7335 6.43669C14.6884 6.29787 14.6102 6.17207 14.5058 6.0701L13.6878 5.2731L14.8178 5.1081ZM8.22579 13.8881C8.48379 13.8881 8.74079 13.8071 8.95979 13.6471C9.34779 13.3651 9.53779 12.8961 9.45679 12.4241L9.15579 10.6681L10.4268 9.4281C10.7718 9.0931 10.8928 8.6001 10.7438 8.1421C10.6724 7.91915 10.5395 7.72086 10.3605 7.56998C10.1815 7.4191 9.96361 7.32175 9.73179 7.2891L7.97479 7.0341L7.18679 5.4361C7.08397 5.2266 6.92437 5.05018 6.72618 4.92695C6.52798 4.80373 6.29917 4.73864 6.06579 4.7391C5.58679 4.7391 5.15679 5.0061 4.94279 5.4361L4.15479 7.0341L2.39079 7.2911C2.15941 7.32391 1.94195 7.42123 1.76332 7.57191C1.58469 7.7226 1.45212 7.92055 1.38079 8.1431C1.23379 8.6001 1.35479 9.0901 1.69779 9.4241L2.97379 10.6681L2.67279 12.4251C2.59179 12.8981 2.78279 13.3661 3.17179 13.6481C3.35997 13.7862 3.58331 13.8684 3.81611 13.8852C4.04891 13.902 4.28173 13.8527 4.48779 13.7431L6.06479 12.9131L7.64179 13.7431C7.82679 13.8391 8.02679 13.8881 8.22579 13.8881ZM7.49479 11.6311L6.48379 11.1001C6.35464 11.032 6.21082 10.9964 6.06479 10.9964C5.91877 10.9964 5.77495 11.032 5.64579 11.1001L4.63479 11.6321L4.82779 10.5071C4.85233 10.3632 4.84158 10.2155 4.79647 10.0767C4.75136 9.93787 4.67323 9.81207 4.56879 9.7101L3.75179 8.9121L4.88179 8.7481C5.02624 8.72686 5.16338 8.67091 5.28147 8.58504C5.39955 8.49918 5.49506 8.38596 5.55979 8.2551L6.06479 7.2311L6.56979 8.2551C6.70079 8.5211 6.95379 8.7051 7.24779 8.7471L8.37779 8.9121L7.56079 9.7091C7.45637 9.81087 7.37824 9.93649 7.33312 10.0752C7.288 10.2138 7.27725 10.3614 7.30179 10.5051L7.49479 11.6311ZM30.6178 8.1421C30.5461 7.9194 30.4132 7.72138 30.2342 7.5707C30.0552 7.42003 29.8375 7.32278 29.6058 7.2901L27.8488 7.0341L27.0598 5.4361C26.957 5.22663 26.7974 5.0493 26.5992 4.92623C26.4009 4.80315 26.1721 4.73831 25.9388 4.7391C25.4598 4.7391 25.0288 5.0071 24.8168 5.4361L24.0278 7.0341L22.2638 7.2901C21.7888 7.3591 21.4028 7.6861 21.2548 8.1421C21.1068 8.5981 21.2288 9.0891 21.5708 9.4231L22.8468 10.6671L22.5458 12.4221C22.4638 12.8951 22.6548 13.3641 23.0428 13.6461C23.2311 13.7843 23.4545 13.8666 23.6875 13.8836C23.9204 13.9006 24.1535 13.8516 24.3598 13.7421L25.9368 12.9121L27.5138 13.7421C27.9388 13.9641 28.4428 13.9291 28.8298 13.6471C29.2178 13.3661 29.4088 12.8971 29.3288 12.4231L29.0278 10.6671L30.2998 9.4271C30.6458 9.0921 30.7668 8.5991 30.6178 8.1421ZM27.4338 9.7091C27.3294 9.81107 27.2512 9.93687 27.2061 10.0757C27.161 10.2145 27.1503 10.3622 27.1748 10.5061L27.3678 11.6311L26.3568 11.1001C26.2276 11.0321 26.0838 10.9966 25.9378 10.9966C25.7918 10.9966 25.648 11.0321 25.5188 11.1001L24.5078 11.6321L24.7008 10.5061C24.7253 10.3624 24.7146 10.2148 24.6695 10.0762C24.6243 9.93749 24.5462 9.81187 24.4418 9.7101L23.6238 8.9131L24.7538 8.7491C24.8982 8.72804 25.0353 8.67227 25.1534 8.58658C25.2715 8.50089 25.367 8.38783 25.4318 8.2571L25.9368 7.2331L26.4418 8.2571C26.5728 8.5231 26.8258 8.7071 27.1198 8.7491L28.2498 8.9141L27.4338 9.7091Z" fill="#0A5CFF"/>
<path d="M15.9999 13.2451C11.1319 13.2451 7.17188 17.2051 7.17188 22.0721C7.17188 26.9401 11.1319 30.9001 15.9999 30.9001C20.8679 30.9001 24.8279 26.9401 24.8279 22.0721C24.8279 17.2051 20.8679 13.2451 15.9999 13.2451ZM15.9999 29.1001C12.1249 29.1001 8.97188 25.9471 8.97188 22.0721C8.97188 18.1971 12.1249 15.0451 15.9999 15.0451C19.8749 15.0451 23.0279 18.1971 23.0279 22.0721C23.0279 25.9471 19.8749 29.1001 15.9999 29.1001Z" fill="#181C25"/>
<path d="M19.8592 22.307C19.6308 22.2381 19.3845 22.2624 19.174 22.3747C18.9635 22.487 18.8061 22.678 18.7362 22.906C18.3742 24.095 17.2492 24.926 16.0002 24.926C14.7512 24.926 13.6252 24.095 13.2642 22.906C13.1935 22.6791 13.0359 22.4894 12.8258 22.3782C12.6158 22.267 12.3703 22.2435 12.1429 22.3127C11.9155 22.3819 11.7247 22.5382 11.6122 22.7475C11.4996 22.9569 11.4745 23.2022 11.5422 23.43C12.1322 25.371 13.9652 26.726 16.0002 26.726C18.0352 26.726 19.8682 25.371 20.4582 23.43C20.5276 23.2017 20.5036 22.9551 20.3912 22.7445C20.2789 22.5339 20.0875 22.3765 19.8592 22.307Z" fill="#181C25"/>
</svg>
