<svg width="32" height="32" viewBox="0 0 32 32" fill="none" xmlns="http://www.w3.org/2000/svg">
<path d="M21.8684 12.4949H10.1324C9.37515 12.4957 8.64918 12.7968 8.11375 13.3323C7.57832 13.8677 7.27716 14.5937 7.27637 15.3509V27.0869C7.27716 27.8441 7.57832 28.5701 8.11375 29.1055C8.64918 29.6409 9.37515 29.9421 10.1324 29.9429H21.8684C22.6256 29.9421 23.3516 29.6409 23.887 29.1055C24.4224 28.5701 24.7236 27.8441 24.7244 27.0869V15.3509C24.7238 14.5936 24.4228 13.8675 23.8873 13.332C23.3518 12.7965 22.6257 12.4954 21.8684 12.4949ZM14.3484 14.2949H17.6534V17.0499H14.3484V14.2949ZM22.9244 27.0869C22.9244 27.6699 22.4504 28.1429 21.8684 28.1429H10.1324C9.85246 28.1423 9.58417 28.0309 9.38625 27.833C9.18832 27.6351 9.0769 27.3668 9.07637 27.0869V15.3509C9.07637 14.7679 9.55037 14.2949 10.1324 14.2949H12.5474V17.5979C12.5474 18.2879 13.1104 18.8499 13.8004 18.8499H18.2004C18.8904 18.8499 19.4534 18.2879 19.4534 17.5979V14.2949H21.8684C22.4504 14.2949 22.9244 14.7689 22.9244 15.3509V27.0869Z" fill="#181C25"/>
<path d="M8.32593 10.4769C8.52363 10.334 8.67713 10.1384 8.76891 9.91243C8.86069 9.68643 8.88703 9.43918 8.84493 9.19892L8.58393 7.67992L9.68493 6.61092C10.0439 6.26092 10.1709 5.74692 10.0159 5.26992C9.86093 4.79292 9.45693 4.45192 8.96093 4.37892L7.44093 4.15792L6.76093 2.78292C6.65356 2.5642 6.4868 2.38011 6.27971 2.25172C6.07263 2.12333 5.83359 2.05582 5.58993 2.05692H5.58793C5.08793 2.05692 4.63893 2.33692 4.41793 2.78492L3.73793 4.15792L2.21993 4.37892C1.72393 4.45092 1.31993 4.79292 1.16393 5.26992C1.00993 5.74692 1.13693 6.26092 1.49693 6.61092L2.59593 7.67992L2.33493 9.19792C2.24893 9.69192 2.44793 10.1809 2.85293 10.4769C3.25793 10.7729 3.78693 10.8109 4.23193 10.5789L5.58993 9.86492L6.94893 10.5779C7.16497 10.6914 7.40849 10.7421 7.65187 10.7243C7.89525 10.7064 8.12877 10.6207 8.32593 10.4769ZM6.72993 7.51792L6.90193 8.52192L6.00793 8.05192C5.87908 7.98396 5.73561 7.94844 5.58993 7.94844C5.44426 7.94844 5.30078 7.98396 5.17193 8.05192L4.27693 8.52092L4.44993 7.51792C4.47478 7.37379 4.46408 7.22578 4.41877 7.08672C4.37346 6.94766 4.29491 6.82175 4.18993 6.71992L3.46693 6.01692L4.46593 5.87092C4.61021 5.84995 4.74723 5.79421 4.86517 5.7085C4.98312 5.62279 5.07844 5.50968 5.14293 5.37892L5.58993 4.47492L6.03693 5.37892C6.16793 5.64492 6.42093 5.82892 6.71393 5.87092L7.71393 6.01692L6.98993 6.71992C6.88502 6.8218 6.80652 6.94771 6.76122 7.08676C6.71591 7.2258 6.70518 7.37379 6.72993 7.51792ZM13.0059 7.67992L12.7449 9.19792C12.6589 9.69192 12.8579 10.1809 13.2629 10.4769C13.6679 10.7729 14.1969 10.8109 14.6419 10.5789L15.9999 9.86592L17.3589 10.5789C17.575 10.6921 17.8184 10.7426 18.0617 10.7247C18.3049 10.7068 18.5383 10.6213 18.7355 10.4778C18.9327 10.3342 19.0859 10.1384 19.1776 9.91243C19.2694 9.68645 19.2962 9.43931 19.2549 9.19892L18.9939 7.67992L20.0929 6.61192C20.4529 6.26192 20.5809 5.74892 20.4269 5.27092C20.3525 5.03784 20.2139 4.83048 20.0269 4.67269C19.8399 4.51489 19.6122 4.41307 19.3699 4.37892L17.8509 4.15792L17.1709 2.78492C16.9499 2.33592 16.5009 2.05692 15.9999 2.05692C15.4989 2.05692 15.0499 2.33592 14.8279 2.78492L14.1479 4.15792L12.6299 4.37892C12.3878 4.41352 12.1603 4.51551 11.9734 4.67324C11.7865 4.83097 11.6477 5.03808 11.5729 5.27092C11.4189 5.74892 11.5469 6.26192 11.9069 6.61092L13.0059 7.67992ZM14.8759 5.87092C15.0202 5.84995 15.1572 5.79421 15.2752 5.7085C15.3931 5.62279 15.4884 5.50968 15.5529 5.37892L15.9999 4.47492L16.4469 5.37892C16.5116 5.50957 16.6069 5.6226 16.7248 5.70829C16.8428 5.79398 16.9797 5.84979 17.1239 5.87092L18.1229 6.01692L17.3989 6.71992C17.294 6.82175 17.2154 6.94766 17.1701 7.08672C17.1248 7.22578 17.1141 7.37379 17.1389 7.51792L17.3119 8.52092L16.4169 8.05192C16.2884 7.98337 16.1451 7.94752 15.9994 7.94752C15.8538 7.94752 15.7104 7.98337 15.5819 8.05192L14.6869 8.52092L14.8599 7.51792C14.8848 7.37379 14.8741 7.22578 14.8288 7.08672C14.7835 6.94766 14.7049 6.82175 14.5999 6.71992L13.8759 6.01692L14.8759 5.87092ZM30.8359 5.26992C30.7611 5.03734 30.6225 4.83047 30.4358 4.67293C30.249 4.51538 30.0218 4.4135 29.7799 4.37892L28.2609 4.15792L27.5809 2.78492C27.4739 2.56594 27.3074 2.38147 27.1005 2.25257C26.8936 2.12366 26.6547 2.05552 26.4109 2.05592H26.4089C26.1647 2.05496 25.9251 2.12283 25.7176 2.25177C25.5102 2.3807 25.3432 2.56548 25.2359 2.78492L24.5569 4.15792L23.0369 4.37892C22.5409 4.45192 22.1369 4.79292 21.9819 5.26992C21.8269 5.74692 21.9539 6.26092 22.3139 6.61092L23.4139 7.67992L23.1529 9.19792C23.0669 9.69192 23.2659 10.1819 23.6719 10.4769C23.869 10.6211 24.1025 10.7069 24.346 10.7248C24.5894 10.7427 24.833 10.6918 25.0489 10.5779L26.4079 9.86492L27.7669 10.5779C28.2099 10.8099 28.7399 10.7719 29.1449 10.4759C29.5489 10.1809 29.7489 9.69092 29.6629 9.19792L29.4039 7.67992L30.5039 6.61092C30.8629 6.26092 30.9899 5.74692 30.8359 5.26992ZM27.8099 6.71992C27.705 6.82175 27.6264 6.94766 27.5811 7.08672C27.5358 7.22578 27.5251 7.37379 27.5499 7.51792L27.7229 8.52092L26.8279 8.05192C26.6991 7.98379 26.5556 7.94818 26.4099 7.94818C26.2642 7.94818 26.1207 7.98379 25.9919 8.05192L25.0969 8.52092L25.2689 7.51792C25.2938 7.37379 25.2831 7.22578 25.2378 7.08672C25.1925 6.94766 25.1139 6.82175 25.0089 6.71992L24.2849 6.01692L25.2849 5.87092C25.4292 5.84995 25.5662 5.79421 25.6842 5.7085C25.8021 5.62279 25.8974 5.50968 25.9619 5.37892L26.4089 4.47492L26.8559 5.37992C26.9206 5.51057 27.0159 5.6236 27.1338 5.70929C27.2518 5.79498 27.3887 5.85079 27.5329 5.87192L28.5319 6.01792L27.8099 6.71992Z" fill="#0A5CFF"/>
</svg>
