<svg width="32" height="32" viewBox="0 0 32 32" fill="none" xmlns="http://www.w3.org/2000/svg">
<path d="M30.5744 15.5731L27.2134 11.7921C27.0601 11.6393 26.8792 11.5168 26.6804 11.4311L19.8054 8.95314C19.5808 8.87225 19.3332 8.88391 19.1172 8.98556C18.9011 9.0872 18.7343 9.27051 18.6534 9.49514C18.5725 9.71978 18.5842 9.96735 18.6858 10.1834C18.7875 10.3994 18.9708 10.5663 19.1954 10.6471L23.8234 12.3151L16.0004 15.1241L8.17742 12.3151L12.8054 10.6471C12.9167 10.6071 13.0189 10.5455 13.1063 10.466C13.1938 10.3864 13.2647 10.2904 13.315 10.1834C13.3653 10.0764 13.3941 9.96058 13.3997 9.84249C13.4052 9.7244 13.3875 9.60637 13.3474 9.49514C13.3074 9.38391 13.2458 9.28166 13.1662 9.19423C13.0867 9.10679 12.9906 9.03589 12.8837 8.98556C12.7767 8.93523 12.6609 8.90646 12.5428 8.9009C12.4247 8.89534 12.3067 8.91309 12.1954 8.95314L5.32042 11.4311C5.11878 11.5116 4.93695 11.6348 4.78742 11.7921L1.42742 15.5721C1.2879 15.7285 1.18892 15.9168 1.13915 16.1203C1.08939 16.3239 1.09037 16.5366 1.14201 16.7397C1.19365 16.9428 1.29437 17.1301 1.43532 17.2852C1.57628 17.4403 1.75316 17.5584 1.95042 17.6291L4.61542 18.5901V25.2021C4.61542 25.7441 4.95742 26.2311 5.46742 26.4131L15.5684 30.0491C15.8497 30.15 16.1574 30.1496 16.4384 30.0481L26.5354 26.4141C27.0454 26.2311 27.3884 25.7441 27.3884 25.2021V18.5901L30.0544 17.6281C30.2511 17.5569 30.4273 17.4386 30.5677 17.2835C30.708 17.1285 30.8083 16.9414 30.8596 16.7386C30.9109 16.5358 30.9117 16.3236 30.862 16.1204C30.8123 15.9172 30.7136 15.7293 30.5744 15.5731ZM5.79242 13.3711L14.4444 16.4771L11.9264 19.3141L3.28142 16.1951L5.79242 13.3711ZM6.41442 19.2391L11.6644 21.1331C11.7984 21.1781 11.9354 21.2001 12.0724 21.2001C12.4314 21.2001 12.7844 21.0501 13.0434 20.7681L15.1004 18.4501V27.9681L6.41442 24.8421V19.2391ZM25.5854 24.8421L16.8994 27.9681V18.4501L18.9664 20.7791C19.1391 20.9655 19.3623 21.0976 19.6087 21.1594C19.8551 21.2212 20.1142 21.21 20.3544 21.1271L25.5844 19.2401L25.5854 24.8421ZM20.0744 19.3141L17.5564 16.4771L26.2084 13.3711L28.7184 16.1951L20.0744 19.3141Z" fill="#181C25"/>
<path d="M14.2821 5.76601L15.1001 4.94801V10.442C15.1001 10.6807 15.195 10.9096 15.3637 11.0784C15.5325 11.2472 15.7614 11.342 16.0001 11.342C16.2388 11.342 16.4677 11.2472 16.6365 11.0784C16.8053 10.9096 16.9001 10.6807 16.9001 10.442V4.94801L17.7181 5.76601C17.8015 5.84983 17.9006 5.91634 18.0097 5.96172C18.1189 6.00711 18.2359 6.03047 18.3541 6.03047C18.4723 6.03047 18.5894 6.00711 18.6985 5.96172C18.8077 5.91634 18.9068 5.84983 18.9901 5.76601C19.0738 5.68259 19.1402 5.58347 19.1855 5.47433C19.2308 5.36519 19.2542 5.24818 19.2542 5.13001C19.2542 5.01184 19.2308 4.89484 19.1855 4.7857C19.1402 4.67656 19.0738 4.57744 18.9901 4.49401L16.6361 2.14001C16.5527 2.05632 16.4536 1.98992 16.3444 1.94461C16.2353 1.8993 16.1183 1.87598 16.0001 1.87598C15.882 1.87598 15.765 1.8993 15.6558 1.94461C15.5467 1.98992 15.4476 2.05632 15.3641 2.14001L13.0101 4.49401C12.9264 4.57744 12.86 4.67656 12.8147 4.7857C12.7694 4.89484 12.7461 5.01184 12.7461 5.13001C12.7461 5.24818 12.7694 5.36519 12.8147 5.47433C12.86 5.58347 12.9264 5.68259 13.0101 5.76601C13.0936 5.84971 13.1927 5.91611 13.3018 5.96142C13.411 6.00673 13.528 6.03005 13.6461 6.03005C13.7643 6.03005 13.8813 6.00673 13.9904 5.96142C14.0996 5.91611 14.1987 5.84971 14.2821 5.76601Z" fill="#0A5CFF"/>
</svg>
